<?xml version="1.0" standalone="no"?>
<!DOCTYPE svg PUBLIC "-//W3C//DTD SVG 1.1//EN" "http://www.w3.org/Graphics/SVG/1.1/DTD/svg11.dtd" >
<svg xmlns="http://www.w3.org/2000/svg">
<metadata></metadata>
<defs>
<font id="yaahowu_lightregular" horiz-adv-x="1157" >
<font-face units-per-em="2048" ascent="1638" descent="-410" />
<missing-glyph horiz-adv-x="508" />
<glyph horiz-adv-x="2048" />
<glyph horiz-adv-x="2048" />
<glyph unicode="&#xd;" horiz-adv-x="508" />
<glyph unicode=" "  horiz-adv-x="508" />
<glyph unicode="&#x09;" horiz-adv-x="508" />
<glyph unicode="&#xa0;" horiz-adv-x="508" />
<glyph unicode="!" horiz-adv-x="323" d="M90 70q0 32 22 54t54 22t54 -22t22 -54t-22 -54t-54 -22t-54 22t-22 54zM113 1500q0 19 13 29q14 11 36 11t36 -11q13 -10 13 -29q0 -218 -10 -608q-9 -320 -9 -525q0 -21 -11 -32q-8 -8 -19 -8q-12 0 -20 8q-10 11 -10 32q0 205 -10 525q-9 390 -9 608z" />
<glyph unicode="&#x22;" horiz-adv-x="581" d="M110 1500q0 19 13 29q14 11 36 11t35 -11q14 -11 14 -29q0 -83 -10 -236q-9 -154 -9 -294q0 -21 -10 -32q-9 -9 -20 -9q-12 0 -20 8q-10 11 -10 32q0 129 -10 296q-9 167 -9 235zM373 1500q0 19 13 29q14 11 36 11t35 -11q14 -11 14 -29q0 -83 -10 -236q-9 -154 -9 -294 q0 -21 -10 -32q-9 -9 -20 -9q-12 0 -20 8q-10 11 -10 32q0 129 -10 296q-9 167 -9 235z" />
<glyph unicode="#" horiz-adv-x="1202" d="M110 13q0 2 1 6q61 223 147 537h-112q-18 0 -27 9q-7 7 -7 16t7 16q9 9 27 9h125q24 86 43 158q17 63 48 175h-216q-18 0 -27 9q-7 7 -7 16q0 10 7 17q9 8 27 8h230q63 232 146 536q4 14 19 14q7 0 16 -2q25 -6 25 -16q0 -3 -1 -8l-144 -524h448q64 232 147 536 q4 14 19 14q7 0 16 -2q25 -6 25 -16q0 -3 -1 -7l-144 -525h108q19 0 28 -8q7 -7 7 -17q0 -9 -7 -16q-10 -9 -28 -9h-121l-92 -333h213q18 0 28 -9q7 -7 7 -16t-7 -16q-10 -9 -28 -9h-226l-149 -545q-4 -15 -19 -15q-7 0 -16 2q-26 6 -26 15q0 2 1 6q62 225 147 537h-448 l-149 -545q-4 -15 -19 -15q-7 0 -16 2q-25 6 -25 15zM332 606h449q24 86 43 158q17 63 48 175h-448z" />
<glyph unicode="$" horiz-adv-x="1240" d="M110 492v8q1 24 15 38q11 11 27 11h3q18 0 29 -12q14 -13 14 -39v-8q0 -125 58 -219q65 -105 190 -153q59 -22 149 -33v783q-169 81 -216 130q-88 92 -88 230q0 144 95 234q77 72 209 89v39q0 20 10 32q8 8 20 8t20 -8q10 -12 10 -33v-37q116 -15 190 -75 q112 -92 112 -249q0 -26 -13 -39q-13 -12 -31 -12t-29 12q-14 13 -14 39q0 124 -84 192q-45 36 -131 55v-548q58 -27 108 -48q241 -103 318 -242q49 -91 49 -188q0 -14 -1 -29q-8 -111 -80 -209q-103 -138 -286 -184q-43 -10 -108 -18v-126q0 -21 -10 -32q-8 -8 -20 -8 t-20 8q-10 11 -10 32v126q-104 9 -183 38q-149 57 -229 180q-73 115 -73 265zM379 1228q0 -110 67 -180q29 -31 149 -93v520q-108 -21 -158 -79q-58 -68 -58 -168zM655 86q55 8 81 15q154 37 239 152q70 95 70 194q0 78 -43 157q-32 57 -87 101q-64 51 -189 104 q-18 8 -71 29v-752z" />
<glyph unicode="%" horiz-adv-x="1603" d="M110 1106q0 420 263 420t263 -420q0 -181 -44 -280q-62 -140 -219 -140t-219 140q-44 99 -44 280zM170 1106q0 -271 102 -341q40 -29 101 -29t101 29q102 70 102 341q0 272 -103 343q-40 27 -100 27t-100 -27q-103 -71 -103 -343zM416 27q0 7 4 14l709 1472q7 13 19 17 q5 2 11 2q7 0 13 -2q10 -4 14 -13q2 -5 2 -9q0 -8 -5 -18l-705 -1463q-13 -25 -30 -25q-7 0 -16 3q-10 4 -14 13q-2 4 -2 9zM967 433q0 420 263 420t263 -420q0 -181 -44 -280q-62 -140 -219 -140t-219 140q-44 99 -44 280zM1027 433q0 -271 102 -341q40 -29 101 -29t101 29 q102 70 102 341q0 272 -103 343q-40 27 -100 27t-100 -27q-103 -71 -103 -343z" />
<glyph unicode="&#x26;" horiz-adv-x="1394" d="M110 382q0 53 20 108q37 97 128 180q65 59 218 155q-49 62 -76 101q-129 188 -129 327q0 49 15 90q69 187 286 196q11 1 22 1q155 0 241 -110q66 -84 69 -181v-11q0 -126 -93 -230q-67 -78 -253 -194q132 -152 306 -308q69 -62 176 -150q19 88 19 141q0 13 -1 26v2 q0 16 8 25q8 8 20 9h2q12 0 20 -7q9 -9 10 -26q1 -15 1 -28q0 -88 -32 -181q147 -120 249 -195q16 -12 18 -27v-1q0 -5 -6 -11q-11 -12 -22 -12q-13 0 -30 13q-89 66 -232 181q-141 -224 -424 -236q-23 -1 -44 -1q-168 0 -292 66q-135 71 -177 192q-17 47 -17 96zM169 387 q0 -43 15 -86q37 -103 152 -165q113 -59 266 -59q18 0 35 1q265 13 381 224q-112 93 -198 170q-180 162 -311 313q-145 -92 -207 -149q-133 -121 -133 -249zM331 1253q0 -126 121 -301q27 -40 72 -98q224 139 283 243q37 65 37 140v8q-2 85 -59 157q-70 87 -194 87h-17 q-175 -8 -229 -158q-14 -36 -14 -78z" />
<glyph unicode="'" horiz-adv-x="318" d="M110 1500q0 19 13 29q14 11 36 11t35 -11q14 -11 14 -29q0 -83 -10 -236q-9 -154 -9 -294q0 -21 -10 -32q-9 -9 -20 -9q-12 0 -20 8q-10 11 -10 32q0 129 -10 296q-9 167 -9 235z" />
<glyph unicode="(" horiz-adv-x="578" d="M110 740q0 342 44 545q56 253 190 331q60 36 135 36q19 0 30 -12q9 -8 9 -20q0 -14 -9 -22q-10 -11 -30 -11q-60 0 -107 -29q-202 -118 -202 -818q0 -698 200 -817q48 -29 109 -29q20 0 30 -11q9 -8 9 -22q0 -13 -9 -21q-10 -11 -30 -11q-77 0 -137 36q-133 79 -189 332 q-43 202 -43 543z" />
<glyph unicode=")" horiz-adv-x="578" d="M60 -139q0 14 9 22q10 11 30 11q61 0 109 29q200 119 200 817q0 700 -202 818q-47 29 -107 29q-20 0 -30 11q-9 8 -9 22q0 12 9 20q11 12 30 12q75 0 135 -36q134 -78 190 -331q44 -203 44 -545q0 -341 -43 -543q-56 -253 -189 -332q-60 -36 -137 -36q-20 0 -30 11 q-9 8 -9 21z" />
<glyph unicode="*" horiz-adv-x="854" d="M110 1293q0 7 2 16q7 23 28 23q18 0 44 -11l228 -97l-23 251q-1 7 -1 14q0 47 38 49h2q33 0 33 -48q0 -8 -1 -17l-23 -246l232 98q24 10 41 10q22 0 31 -25q3 -9 3 -16q0 -23 -54 -36l-241 -55l165 -189q24 -28 24 -47q0 -14 -17 -26q-11 -10 -20 -10q-20 0 -45 42 l-127 212l-128 -216q-24 -39 -45 -39q-10 0 -23 9q-16 11 -16 23q0 19 27 49l162 187l-244 56q-52 12 -52 39z" />
<glyph unicode="+" horiz-adv-x="1048" d="M110 742q0 9 7 16q9 9 27 9h355v355q0 18 9 27q7 7 16 7t16 -7q9 -9 9 -28v-354h355q18 0 27 -9q7 -7 7 -16q0 -10 -7 -17q-9 -8 -27 -8h-355v-355q0 -18 -9 -28q-6 -6 -16 -6t-16 6q-9 10 -9 28v355h-355q-18 0 -27 8q-7 7 -7 17z" />
<glyph unicode="," horiz-adv-x="377" d="M110 85q0 26 22 45q22 20 55 20q34 0 58 -20q21 -19 21 -45q1 -8 1 -16q0 -116 -139 -320l-9 4q47 83 76 160q8 33 8 55q0 56 -41 56q-52 13 -52 61z" />
<glyph unicode="-" horiz-adv-x="608" d="M0 546q0 9 7 16q9 9 27 9h540q18 0 27 -9q7 -7 7 -16q0 -10 -7 -17q-9 -8 -27 -8h-540q-18 0 -27 8q-7 7 -7 17z" />
<glyph unicode="." horiz-adv-x="372" d="M110 70q0 32 22 54t54 22t54 -22t22 -54t-22 -54t-54 -22t-54 22t-22 54z" />
<glyph unicode="/" horiz-adv-x="472" d="M0 13q0 2 1 6q86 314 203 744q70 257 208 762q4 14 19 14q7 0 16 -2q25 -6 25 -16q0 -3 -1 -8l-411 -1502q-4 -15 -19 -15q-7 0 -16 2q-25 6 -25 15z" />
<glyph unicode="0" d="M100 779q0 326 75 505q112 266 397 266h14q285 0 397 -266q75 -179 75 -505q0 -327 -75 -505q-111 -266 -397 -266h-14q-286 0 -397 266q-75 178 -75 505zM188 779q0 -509 190 -641q77 -55 194 -55h14q117 0 194 55q190 132 190 641t-192 643q-77 52 -192 52h-14 q-115 0 -192 -52q-192 -134 -192 -643z" />
<glyph unicode="1" d="M230 1063v3q0 18 17 36q31 36 81 97q61 73 80 96q102 118 167 175q85 73 149 73q14 0 28 -4q89 -26 89 -207v-1274q0 -25 -13 -38q-13 -12 -31 -12t-30 12q-13 13 -13 38v1274q0 84 -26 140q-55 -21 -106 -70q-57 -50 -143 -152q-20 -23 -81 -97q-51 -61 -82 -96 q-17 -19 -40 -22q-4 -1 -8 -1q-13 0 -23 7q-13 10 -15 22z" />
<glyph unicode="2" d="M110 1068q0 198 116 336q128 149 337 149q158 0 270 -68q193 -117 193 -384q0 -116 -128 -271q-73 -89 -236 -236q-23 -20 -68 -61q-342 -307 -368 -346q-15 -24 -15 -43q0 -44 59 -44l728 2q25 0 38 -13q11 -10 11 -25q0 -14 -11 -25q-13 -13 -38 -13l-748 -1 q-86 0 -120 40q-18 23 -18 53q0 17 5 35q26 90 173 227q46 42 128 110q88 73 113 95q44 39 68 60q340 309 340 456q0 173 -94 271q-98 105 -282 105q-156 0 -253 -103q-112 -120 -112 -306q0 -24 -14 -38q-12 -12 -30 -12t-31 12q-13 13 -13 38z" />
<glyph unicode="3" d="M60 504q0 26 13 39q13 12 31 12q17 0 30 -12q13 -13 13 -39q0 -189 109 -301q114 -119 318 -119q203 0 317 119q109 112 109 301q0 170 -122 287q-123 119 -304 119q-29 0 -44 14q-12 10 -12 24q0 15 12 25q15 14 44 14q105 0 176 74q69 71 69 169q0 105 -65 173 q-67 71 -180 71t-181 -71q-65 -68 -65 -173q0 -25 -13 -38q-13 -12 -30 -12q-18 0 -31 12q-13 13 -13 38q0 138 91 227q92 93 242 93q149 0 242 -93q91 -89 91 -227q0 -149 -152 -272q172 -74 251 -191q82 -119 82 -263q0 -221 -136 -356q-138 -140 -378 -140t-379 140 q-135 135 -135 356z" />
<glyph unicode="4" d="M50 506q0 17 5 36q26 91 173 230q49 45 128 112q95 79 113 97q45 39 68 60q340 308 340 455q0 25 13 38q13 12 30 12q18 0 31 -12q13 -13 13 -38q0 -115 -128 -271q-73 -88 -236 -236q-24 -21 -68 -61q-15 -13 -94 -81q-76 -62 -122 -106q-154 -140 -177 -220v-29 q34 -3 48 -3l701 1v282q0 29 15 44q12 13 29 13t29 -12q15 -16 15 -45v-282h176q25 0 39 -12q11 -11 11 -25q0 -15 -11 -25q-14 -13 -39 -13h-176v-350q0 -29 -15 -45q-12 -12 -29 -12t-29 12q-15 16 -15 45v349l-700 -1q-86 0 -120 41q-18 22 -18 52z" />
<glyph unicode="5" d="M70 493q0 25 14 39q12 11 30 11t30 -11q14 -14 14 -39q0 -184 111 -295q116 -115 315 -115q200 0 315 115q112 111 112 295q0 167 -122 288q-125 123 -305 123q-168 0 -294 -117q-14 -12 -29 -12q-16 0 -37 12q-33 20 -33 50q0 10 3 22l144 676h691q25 0 39 -12 q11 -11 11 -25q0 -15 -11 -25q-14 -13 -39 -13h-617l-120 -564q161 83 292 83q217 0 367 -145q147 -143 147 -341q0 -215 -136 -348q-141 -137 -378 -137t-378 137q-136 133 -136 348z" />
<glyph unicode="6" d="M70 493q0 464 664 1040q20 17 43 17q18 0 31 -12q10 -8 10 -20v-4q-1 -17 -21 -35q-640 -554 -640 -986q0 -184 111 -295q116 -115 315 -115q200 0 316 115q111 111 111 295q0 167 -122 288q-125 123 -305 123q-29 0 -44 13q-12 10 -12 24q0 15 12 25q15 13 44 13 q217 0 368 -145q146 -143 146 -341q0 -215 -136 -348q-141 -137 -378 -137q-236 0 -377 137q-136 133 -136 348z" />
<glyph unicode="7" d="M120 1498v3q0 13 10 22q14 13 39 13h734q91 0 124 -51q14 -21 14 -48q0 -75 -93 -198q-61 -83 -143 -164q-190 -193 -266 -347q-132 -266 -132 -670q0 -25 -13 -38q-13 -12 -31 -12t-30 12q-13 13 -13 38q0 419 138 699q82 165 281 366q77 79 136 157q42 56 63 98 q13 28 13 44v5q-9 33 -54 33h-728q-25 0 -39 13q-10 10 -10 25z" />
<glyph unicode="8" d="M70 493q0 175 117 310q58 65 136 109q10 5 23 5q6 0 12 -1q20 -3 33 -15q6 -6 6 -14q0 -3 -1 -6q-3 -17 -32 -36q-61 -35 -107 -88q-100 -115 -100 -264q0 -184 111 -295q116 -115 316 -115q199 0 315 115q111 111 111 295q0 173 -120 267q-67 51 -202 100 q-301 107 -366 176q-70 75 -71 184v6q0 99 62 185q93 127 271 127t269 -124q63 -87 63 -193q0 -115 -86 -213q-17 -19 -39 -22q-4 -1 -7 -1q-14 0 -26 8q-12 9 -13 22v5q0 16 16 34q68 78 68 167q0 84 -50 153q-65 89 -195 89t-196 -91q-50 -70 -50 -147v-3q1 -84 52 -138 t332 -156q149 -52 227 -113q148 -115 148 -322q0 -215 -136 -348q-141 -137 -377 -137q-237 0 -378 137q-136 133 -136 348z" />
<glyph unicode="9" d="M60 1064q0 216 136 349q141 137 378 137t378 -137q136 -133 136 -349q0 -463 -665 -1039q-20 -17 -42 -17q-19 0 -31 11q-11 10 -11 23v1q1 17 22 35q639 555 639 986q0 185 -111 296q-116 115 -315 115q-200 0 -315 -115q-111 -111 -111 -296q0 -166 121 -287 q125 -123 305 -123q29 0 45 -13q11 -10 11 -24q0 -15 -11 -25q-16 -13 -45 -13q-216 0 -367 145q-147 143 -147 340z" />
<glyph unicode=":" horiz-adv-x="372" d="M110 84q0 32 22 54t54 22t54 -22t22 -54t-22 -54t-54 -22t-54 22t-22 54zM110 767q0 32 22 54t54 22t54 -22t22 -54q0 -31 -22 -53.5t-54 -22.5t-54 22.5t-22 53.5z" />
<glyph unicode=";" horiz-adv-x="377" d="M110 85q0 26 22 45q22 20 55 20q34 0 58 -20q21 -19 21 -45q1 -8 1 -16q0 -116 -139 -320l-9 4q47 83 76 160q8 33 8 55q0 56 -41 56q-52 13 -52 61zM110 753q0 32 22 54t54 22t54 -22t22 -54q0 -31 -22 -53.5t-54 -22.5t-54 22.5t-22 53.5z" />
<glyph unicode="&#x3c;" horiz-adv-x="1039" d="M110 369q0 4 2 8q6 14 32 26l583 284q62 30 62 56v2q-2 25 -65 56l-580 278q-26 13 -32 27q-1 3 -1 6q0 4 2 8q6 8 18 12q5 1 10 1q11 0 22 -5l626 -302q138 -66 140 -82q0 -16 -119 -75l-647 -313q-12 -6 -24 -6q-5 0 -9 1q-12 3 -18 11q-2 4 -2 7z" />
<glyph unicode="=" horiz-adv-x="1048" d="M110 572q0 9 7 16q9 9 27 9h760q18 0 27 -9q7 -7 7 -16q0 -10 -7 -17q-9 -8 -27 -8h-760q-18 0 -27 8q-7 7 -7 17zM110 911q0 9 7 16q9 9 27 9h760q18 0 27 -9q7 -7 7 -16q0 -10 -7 -17q-9 -8 -27 -8h-760q-18 0 -27 8q-7 7 -7 17z" />
<glyph unicode="&#x3e;" horiz-adv-x="1039" d="M110 369q0 4 2 8q6 14 32 26l583 284q62 30 62 56v2q-2 25 -65 56l-580 278q-26 13 -32 27q-1 3 -1 6q0 4 2 8q6 8 18 12q5 1 10 1q11 0 22 -5l626 -302q138 -66 140 -82q0 -16 -119 -75l-647 -313q-12 -6 -24 -6q-5 0 -9 1q-12 3 -18 11q-2 4 -2 7z" />
<glyph unicode="?" horiz-adv-x="1109" d="M110 1064q0 193 112 328q123 147 327 147q150 0 259 -65q191 -112 191 -377q0 -158 -228 -406q-24 -26 -86 -90q-50 -52 -75 -79q-73 -85 -73 -129v-5q6 -69 88 -69h12q27 0 27 -25t-26 -25h-13q-63 0 -101 31q-38 30 -44 81v10q0 56 58 133q35 46 157 168 q244 247 244 405q0 179 -97 282q-102 110 -293 110q-156 0 -257 -101q-122 -126 -122 -324q0 -17 -9 -26q-9 -8 -21 -8t-21 8q-9 9 -9 26zM479 84q0 31 22 53t54 22t54 -22t22 -53q0 -32 -22 -54t-54 -22t-54 22t-22 54z" />
<glyph unicode="@" horiz-adv-x="1704" d="M110 568q0 438 137 667q179 297 611 297q314 0 507 -130q164 -111 212 -294q17 -66 17 -129q0 -92 -36 -179q-82 -197 -286 -197q3 -42 3 -57q0 -245 -81 -375q-101 -163 -343 -163q-204 0 -315 129q-76 89 -76 194q0 33 8 69q27 121 135 189q102 64 248 64h360 q-25 217 -119 302q-85 78 -241 78q-147 0 -232 -70q-79 -65 -110 -198q-4 -17 -16 -25q-8 -5 -17 -5q-3 0 -5 1q-12 2 -18 10q-5 7 -5 17q0 5 1 11q73 309 402 309q374 0 420 -430h32q131 0 198 162q33 80 33 164q0 58 -16 118q-43 166 -191 267q-176 118 -469 118 q-296 0 -460 -150q-228 -209 -228 -764t231 -765q164 -148 457 -148q374 0 541 245q14 21 29 21q9 0 20 -5q8 -5 11 -13v-5q0 -10 -9 -23q-182 -270 -592 -270q-430 0 -610 298q-138 230 -138 665zM521 332q0 -90 64 -166q93 -108 266 -108q157 0 243 79q121 111 121 409 q0 18 -3 57h-361q-120 0 -204 -49q-96 -57 -119 -163q-7 -30 -7 -59z" />
<glyph unicode="A" horiz-adv-x="1355" d="M70 45q0 10 5 23q93 268 213 635q117 358 151 456q68 194 111 277q60 114 129 114t128 -114q43 -83 110 -277q35 -99 151 -456q120 -367 212 -635q5 -13 5 -22q0 -10 -5 -18q-7 -14 -23 -19q-6 -1 -13 -1q-10 0 -21 5q-19 10 -26 33q-45 130 -137 408h-656q-25 0 -39 13 q-10 10 -10 25t10 25q14 13 39 13h631q-24 71 -37 112q-121 368 -144 439q-66 191 -106 280q-42 94 -69 94q-28 0 -70 -94q-40 -89 -106 -280q-24 -70 -145 -439q-110 -336 -200 -596q-8 -23 -26 -33q-11 -5 -22 -5q-7 0 -13 1q-15 5 -23 19q-4 7 -4 17z" />
<glyph unicode="B" horiz-adv-x="1188" d="M110 70v905q0 266 45 383q74 192 297 192q154 0 243 -101q76 -84 79 -208v-15q0 -129 -105 -250q309 -83 398 -317q31 -83 31 -169q0 -53 -12 -109q-32 -147 -139 -245q-87 -79 -210 -104q-46 -9 -120 -9h-273q-24 0 -37 12q-10 10 -10 23q0 14 10 24q13 12 37 12l280 -1 h3q153 0 256 95q91 83 117 212q10 45 10 90q0 75 -27 146q-54 142 -191 215q-123 65 -292 66h-24q-29 0 -45 14q-11 10 -11 24t12 24q15 14 44 14h21q50 1 88 26q102 63 102 208v11q-3 102 -62 167q-64 69 -173 69q-97 0 -151 -45q-103 -86 -103 -454v-905q0 -31 -16 -48 q-11 -14 -28 -14t-28 14q-16 17 -16 48z" />
<glyph unicode="C" horiz-adv-x="1191" d="M90 779q0 331 87 514q121 257 424 257h18q467 -7 482 -410v-9q0 -20 -9 -32q-11 -13 -28 -14h-5q-14 0 -26 10q-16 12 -18 36q-18 342 -413 343q-145 0 -238 -69q-187 -145 -187 -626t185 -625q91 -71 239 -71h18q377 2 396 344q2 24 18 36q12 10 26 10h5q17 -1 28 -14 q9 -12 9 -32v-9q-15 -402 -482 -410h-18q-304 0 -425 257q-86 181 -86 514z" />
<glyph unicode="D" horiz-adv-x="1270" d="M110 70v998q0 273 134 391q101 91 273 91q133 0 250 -56q179 -85 289 -277q99 -172 119 -377q5 -53 5 -105q0 -207 -89 -376q-118 -225 -359 -302q-104 -34 -210 -34h-178q-24 0 -37 12q-10 10 -10 23q0 14 10 24q13 12 37 12l149 -1q258 1 414 154q186 181 186 480 q0 51 -5 105q-19 184 -103 338q-99 182 -259 258q-98 46 -209 46q-135 0 -211 -66q-108 -97 -108 -340v-998q0 -31 -16 -48q-11 -14 -28 -14t-28 14q-16 17 -16 48z" />
<glyph unicode="E" horiz-adv-x="1032" d="M110 474v614q0 55 3 95q11 174 89 259q85 95 250 95h440q25 0 39 -13q10 -10 10 -25t-10 -25q-14 -13 -39 -13h-444q-119 0 -178 -65q-72 -81 -72 -308v-270h694q25 0 39 -13q11 -11 11 -25q0 -15 -11 -25q-14 -13 -39 -13h-694v-268q0 -53 2 -91q11 -149 70 -217 q59 -65 178 -65h444q25 0 39 -13q10 -10 10 -25t-10 -25q-14 -13 -39 -13h-444q-161 0 -246 96q-92 101 -92 353z" />
<glyph unicode="F" horiz-adv-x="1021" d="M110 65v1021q0 54 2 96q12 173 89 258q85 95 250 95h440q26 0 39 -13q11 -10 11 -25q0 -14 -11 -25q-14 -13 -39 -13h-443q-119 0 -178 -65q-73 -81 -73 -308v-270h694q26 0 39 -13q11 -11 11 -25q0 -15 -11 -25q-13 -13 -38 -13h-695v-674q0 -29 -14 -45 q-13 -13 -30 -13q-16 0 -29 13q-14 16 -14 44z" />
<glyph unicode="G" horiz-adv-x="1197" d="M90 779q0 75 4 142q16 231 83 372q121 257 424 257h18q467 -7 482 -410v-9q0 -20 -9 -32q-11 -13 -28 -14h-5q-14 0 -26 10q-16 12 -18 36q-18 342 -414 343q-144 0 -237 -69q-157 -122 -184 -507h1q-3 -42 -3 -119q0 -216 34 -357q43 -176 168 -263q105 -75 248 -75h4 q161 2 270 92q120 97 120 257q0 166 -26 215q-47 91 -216 91q-25 0 -39 12q-10 10 -10 25q0 16 10 26q14 12 39 12q198 0 269 -100q58 -83 58 -287q0 -188 -145 -306q-136 -110 -332 -112h-7q-179 0 -306 95q-151 112 -198 338q-29 139 -29 337z" />
<glyph unicode="H" horiz-adv-x="1174" d="M110 66v1426q0 29 14 45q12 12 29 12q18 0 30 -12q14 -16 14 -44v-1428q0 -28 -14 -44q-13 -13 -30 -13t-28 13q-15 16 -15 45zM218 778q0 15 10 25q14 13 39 13h709v676q0 29 15 45q12 12 29 12q18 0 30 -12q14 -16 14 -44v-1428q0 -28 -14 -44q-13 -13 -30 -13t-29 13 q-15 16 -15 45v674h-709q-25 0 -39 13q-10 10 -10 25z" />
<glyph unicode="I" horiz-adv-x="318" d="M115 65v1428q0 28 15 44q12 12 29 12t29 -12q15 -16 15 -45v-1426q0 -29 -15 -45q-12 -13 -29 -13t-29 13q-15 16 -15 44z" />
<glyph unicode="J" horiz-adv-x="537" d="M30 46q0 14 12 24q15 14 44 14q129 0 181 58q72 80 72 308v1043q0 28 15 44q12 12 29 12q18 0 30 -12q14 -16 14 -45v-1042q0 -55 -3 -95q-11 -174 -89 -259q-77 -88 -249 -88q-29 0 -44 14q-12 10 -12 24z" />
<glyph unicode="K" horiz-adv-x="1139" d="M110 65v1428q0 28 14 44q12 12 29 12q18 0 30 -12q14 -16 14 -45v-1426q0 -29 -14 -45q-13 -13 -30 -13t-28 13q-15 16 -15 44zM222 779v1q0 96 198 261q48 40 291 250q173 149 295 243q21 16 42 16h2q18 -1 30 -14q9 -8 9 -19v-6q-2 -16 -24 -33q-118 -91 -288 -238 q-218 -188 -283 -242q-186 -153 -186 -217v-1q0 -63 188 -217q70 -58 282 -241q170 -146 287 -237q22 -17 24 -33v-6q0 -11 -9 -19q-12 -12 -29 -13h-5q-20 0 -40 15q-120 93 -293 242q-230 198 -290 247q-200 166 -201 261z" />
<glyph unicode="L" horiz-adv-x="831" d="M110 474v1021q0 28 14 44q12 12 29 12q18 0 30 -12q14 -16 14 -45v-1020q0 -52 3 -91q10 -149 69 -217q60 -65 179 -65h297q28 0 43 -14q13 -10 13 -24t-12 -24q-16 -14 -44 -14h-298q-162 1 -246 96q-91 101 -91 353z" />
<glyph unicode="M" horiz-adv-x="1789" d="M110 67v961q0 127 6 222q5 92 17 152q24 140 97 149q4 1 7 1q54 0 108 -76q39 -56 89 -167q72 -158 194 -503q142 -397 168 -464q48 -125 100 -231q52 106 99 231q27 69 167 463q123 346 194 503q50 111 90 168q52 75 105 75q5 0 10 -1q72 -8 96 -146q11 -62 17 -152 q5 -94 5 -221v-963q0 -29 -14 -45q-13 -13 -29 -13q-17 0 -30 13q-14 16 -14 44v964q0 205 -15 320q-10 82 -36 87q-24 0 -58 -66q-32 -59 -63 -131q-64 -151 -175 -459q-148 -419 -181 -503q-45 -112 -75 -169q-46 -86 -93 -86q-48 0 -94 86q-30 56 -74 169 q-33 83 -182 504q-111 308 -176 459q-27 64 -57 119q-37 74 -57 78q-32 0 -44 -89q-14 -116 -14 -322v-960q0 -29 -15 -45q-12 -13 -29 -13t-30 13q-14 16 -14 44z" />
<glyph unicode="N" horiz-adv-x="1171" d="M110 67v961q0 127 6 222q5 92 16 153q24 139 96 148q4 1 8 1q31 0 60 -24q21 -19 44 -53q39 -57 87 -168q70 -158 211.5 -525.5t165.5 -432.5q34 -93 61 -149q30 -63 53 -63q25 5 36 78q13 85 17 213q2 58 2 119v948q0 28 14 44q12 12 30 12q17 0 29 -12q15 -16 15 -45 v-947q0 -63 -2 -121q-6 -157 -24 -252q-26 -140 -93 -151q-7 -1 -15 -1q-53 0 -104 78q-46 72 -104 227q-24 66 -159 414.5t-197 499.5q-28 67 -57 124q-35 70 -55 70q-28 0 -39 -85q-14 -116 -14 -322v-960q0 -29 -15 -45q-12 -13 -29 -13t-29 13q-15 16 -15 44z" />
<glyph unicode="O" horiz-adv-x="1220" d="M90 781q0 331 87 514q122 257 427 257h12q305 0 427 -257q87 -183 87 -514q0 -333 -87 -514q-121 -257 -427 -257h-12q-306 0 -427 257q-87 181 -87 514zM178 781q0 -481 186 -625q93 -71 240 -71h12q147 0 240 71q186 144 186 625t-189 626q-92 69 -237 69h-12 q-145 0 -237 -69q-189 -145 -189 -626z" />
<glyph unicode="P" horiz-adv-x="1082" d="M110 67v932q0 55 2 96q11 231 106 337q100 111 295 111q146 0 259 -62q116 -62 178 -179q52 -96 52 -206v-8q-2 -116 -61 -211q-122 -198 -396 -200h-201q-24 0 -36 13q-11 10 -11 25q0 16 10 26q13 12 37 12h200q222 1 320 159q49 80 50 179v4q0 94 -43 176 q-105 196 -358 196q-152 0 -227 -81q-88 -99 -88 -387v-931q0 -29 -15 -45q-12 -13 -29 -13t-29 13q-15 16 -15 44z" />
<glyph unicode="Q" horiz-adv-x="1220" d="M90 781q0 331 87 514q122 257 427 257h12q305 0 427 -257q87 -183 87 -514q0 -333 -87 -514q-85 -180 -293 -244q48 -66 82 -92q91 -70 211 -71v-75q-252 2 -383 227q-30 -2 -44 -2h-12q-306 0 -427 257q-87 181 -87 514zM178 781q0 -481 186 -625q88 -68 261 -72 q-65 197 -67 454h88q2 -265 68 -445q91 24 142 63q186 144 186 625t-189 626q-92 69 -237 69h-12q-145 0 -237 -69q-189 -145 -189 -626z" />
<glyph unicode="R" horiz-adv-x="1194" d="M110 67v942q0 55 2 96q11 231 107 336q99 111 294 111q146 0 259 -62q117 -62 178 -178q52 -96 52 -207v-8q-2 -116 -60 -211q-123 -197 -397 -199h-165q36 -58 51 -78q69 -94 164 -183q287 -270 524 -325q29 -7 39 -23q6 -9 6 -17q0 -4 -1 -9q-4 -14 -19 -22 q-12 -5 -26 -5q-10 0 -22 2q-295 70 -612 393q-102 106 -164 202q-36 58 -37 102v2q0 36 45 36l216 1q223 1 320 159q50 80 51 179q0 96 -44 180q-105 195 -358 195q-152 0 -226 -81q-89 -98 -89 -386v-941q0 -29 -15 -45q-12 -13 -29 -13t-29 13q-15 16 -15 44z" />
<glyph unicode="S" horiz-adv-x="1200" d="M90 492v8q1 24 15 38q11 11 27 11h3q18 0 29 -12q14 -13 14 -39v-8q0 -125 58 -219q65 -105 190 -153q83 -32 171 -32q59 0 119 15q154 37 239 152q70 95 70 194q0 78 -43 157q-32 57 -87 101q-64 51 -189 104q-280 119 -347 189q-88 92 -88 230q0 144 95 234 q87 82 216 89q13 1 25 1q125 0 218 -75q112 -92 112 -249q0 -26 -13 -39q-13 -12 -31 -12t-29 12q-14 13 -14 39q0 124 -84 192q-68 55 -161 55h-17q-108 -7 -171 -79q-58 -68 -58 -168q0 -110 67 -180q54 -58 317 -169q241 -103 318 -242q49 -91 49 -188q0 -14 -1 -29 q-8 -111 -80 -209q-103 -138 -286 -184q-74 -18 -146 -18q-104 0 -205 38q-149 57 -229 180q-73 115 -73 265z" />
<glyph unicode="T" horiz-adv-x="1055" d="M40 1499q0 14 12 24q15 14 42 14h867q27 0 42 -14q12 -10 12 -24t-12 -25q-14 -13 -42 -13h-389v-1393q0 -29 -15 -45q-12 -13 -29 -13t-30 13q-14 16 -14 44v1394h-390q-27 0 -42 14q-12 10 -12 24z" />
<glyph unicode="U" horiz-adv-x="1248" d="M110 781v714q0 28 14 44q12 12 29 12q18 0 30 -12q14 -16 14 -45v-712q1 -482 187 -625q93 -71 240 -71q146 0 239 71q186 143 187 625v713q0 28 15 44q12 12 29 12t29 -12q15 -16 15 -45l-1 -713q0 -333 -86 -514q-122 -257 -427 -257q-306 0 -428 257q-86 181 -86 514z " />
<glyph unicode="V" horiz-adv-x="1355" d="M70 1514q0 9 5 18q7 14 24 18q7 2 12 2q11 0 21 -5q18 -10 26 -34q90 -259 201 -595q121 -369 145 -439q65 -191 105 -280q43 -93 70 -93q28 0 70 93q40 89 105 280q24 71 144 439q110 336 199 595q8 24 27 34q10 5 20 5q6 0 13 -2q16 -4 24 -18q4 -8 4 -19q0 -9 -4 -21 q-93 -269 -212 -636q-117 -356 -151 -455q-67 -194 -110 -277q-60 -114 -129 -114t-128 114q-44 83 -111 277q-34 98 -152 455q-120 367 -213 636q-5 13 -5 22z" />
<glyph unicode="W" horiz-adv-x="2295" d="M70 1519q0 7 5 14q8 11 27 17q11 3 19 3q9 0 15 -3q15 -5 19 -17q355 -1247 419 -1352q13 -23 31 -46q35 -44 60 -44h3q27 4 57 60q31 57 62 160q44 148 104 467q74 405 99 507q29 114 57 172q41 87 103 87q60 -1 102 -87q28 -59 57 -173q26 -102 100 -506 q61 -319 105 -467q30 -102 61 -159q30 -56 57 -60h4q25 0 59 43q18 23 31 45q63 105 413 1352q4 13 19 18q8 3 16 3q9 0 19 -3q19 -5 27 -17q5 -7 5 -13q0 -5 -2 -11q-362 -1278 -435 -1387q-73 -111 -152 -111q-6 0 -13 1q-110 11 -188 260q-49 155 -111 495 q-70 398 -91 488q-45 197 -84 197q-38 0 -83 -197q-20 -89 -90 -488q-62 -340 -110 -495q-78 -249 -188 -261q-7 -1 -12 -1q-80 0 -154 112q-74 110 -440 1387q-2 6 -2 10z" />
<glyph unicode="X" horiz-adv-x="1228" d="M70 46q0 13 9 29q82 133 189 315q103 177 133 227q62 98 102 141q2 1 18 18q-16 24 -21 27q-37 41 -99 140q-29 50 -133 229q-107 183 -189 317q-9 16 -9 29q0 6 1 11q4 14 18 20q10 5 20 5q7 0 14 -2q21 -6 34 -28q81 -131 178 -301q107 -183 130 -220 q103 -172 150 -172t149 172q23 37 129 220q98 170 177 301q13 22 34 28q7 2 14 2q10 0 20 -5q14 -6 18 -20q1 -5 1 -10q0 -13 -10 -30q-81 -134 -187 -318q-102 -178 -132 -227q-61 -100 -101 -143q-3 -3 -18 -25q16 -17 18 -18q40 -43 101 -141q29 -50 132 -227 q107 -182 188 -315q10 -17 10 -31q0 -4 -1 -9q-4 -13 -19 -20q-10 -5 -20 -5q-7 0 -14 2q-21 6 -34 28q-79 129 -177 299q-105 181 -129 219q-102 170 -149 170t-150 -170q-23 -38 -130 -219q-98 -169 -178 -299q-13 -22 -34 -28q-7 -2 -13 -2q-10 0 -21 5q-14 7 -18 21 q-1 4 -1 10z" />
<glyph unicode="Y" horiz-adv-x="1361" d="M70 1520q0 5 1 8q3 13 17 21q11 6 22 6q5 0 11 -1q22 -6 36 -27q60 -87 182 -273q118 -180 182 -272q65 -92 105 -130q34 -33 56 -33t56 33q39 38 104 130q64 92 181 272q122 186 181 273q14 21 36 27q6 1 11 1q11 0 22 -6q14 -8 17 -21q1 -3 1 -8q0 -14 -12 -32 q-60 -87 -181 -273q-118 -180 -182 -272q-108 -156 -192 -194v-681q0 -29 -15 -45q-11 -13 -28 -13t-30 13q-14 16 -14 44v683q-45 21 -76 51q-45 43 -115 142q-63 92 -181 272q-122 186 -183 273q-12 18 -12 32z" />
<glyph unicode="Z" horiz-adv-x="1138" d="M70 124q0 90 120 253q45 61 352 413q22 24 93 102q57 63 92 105q95 115 152 198q65 95 88 158q11 34 11 55q0 16 -7 28q-18 25 -93 25h-737q-26 0 -39 13q-11 10 -11 25q0 14 11 25q13 13 39 13h737q125 0 167 -63q18 -27 18 -64q0 -94 -109 -254q-66 -96 -342 -412 q-298 -341 -334 -388q-69 -92 -99 -153q-24 -47 -24 -72v-21q33 -9 57 -9h806q25 0 39 -13q11 -10 11 -25q0 -14 -11 -25q-13 -12 -38 -13h-807q-91 0 -127 48q-15 20 -15 51z" />
<glyph unicode="[" horiz-adv-x="406" d="M110 -99v1672q0 60 12 72q13 13 73 13h125q26 0 26 -24q0 -25 -26 -25h-150v-1744h150q26 0 26 -24t-26 -24h-125q-60 0 -73 12q-12 12 -12 72z" />
<glyph unicode="\" horiz-adv-x="472" d="M0 1521q0 10 25 16q9 2 16 2q15 0 19 -14q138 -505 208 -762q117 -430 203 -744q1 -4 1 -6q0 -9 -25 -15q-9 -2 -16 -2q-15 0 -19 15l-411 1502q-1 5 -1 8z" />
<glyph unicode="]" horiz-adv-x="406" d="M60 -159q0 24 26 24h150v1744h-150q-26 0 -26 25q0 24 26 24h125q60 0 73 -13q12 -12 12 -72v-1672q0 -60 -12 -72q-13 -12 -73 -12h-125q-26 0 -26 24z" />
<glyph unicode="^" horiz-adv-x="1016" d="M80 1006v3q0 20 21 47q266 346 277 360q94 112 127 113q35 0 129 -110q50 -59 278 -359q23 -30 24 -50v-3q0 -10 -5 -14q-4 -2 -9 -2q-6 0 -14 3q-23 8 -42 34l-277 363q-51 66 -79 68q-31 0 -81 -66l-275 -361q-21 -27 -45 -37q-9 -3 -15 -3q-5 0 -9 2q-5 3 -5 12z" />
<glyph unicode="_" horiz-adv-x="998" d="M110 -72q0 9 7 16q9 9 27 9h710q18 0 27 -9q7 -7 7 -16q0 -10 -7 -17q-9 -8 -27 -8h-710q-18 0 -27 8q-7 7 -7 17z" />
<glyph unicode="`" horiz-adv-x="543" d="M110 1408q0 8 7 15q13 12 23 12q11 0 24 -11l247 -208q22 -19 22 -27q0 -1 -3 -3q-3 -4 -7 -4q-10 0 -27 14l-273 191q-13 10 -13 21z" />
<glyph unicode="a" horiz-adv-x="1018" d="M95 828q0 7 2 14q99 219 398 224h1q175 -2 277 -95q128 -119 135 -397v-509q0 -27 -14 -42q-11 -12 -27 -12t-28 12q-14 15 -14 42v302q0 84 -107 147q-100 57 -231 57q-159 0 -245 -97q-61 -70 -61 -155q0 -24 4 -49q13 -63 51 -110q3 -3 6 -5q61 -56 143 -56q29 1 61 7 q122 26 216 99q19 12 40 12h7q18 -2 28 -14q6 -6 6 -13q0 -3 -1 -8q-5 -18 -34 -37q-122 -97 -266 -115q-27 -4 -52 -4q-107 0 -188 63q-79 73 -97 170q-7 32 -7 63q0 106 78 195q110 126 311 126q184 0 288 -97q3 -4 50 -50v99q0 82 -28 173q-32 106 -84 154 q-77 71 -218 73q-201 -3 -316 -161q-6 -28 -22 -38q-11 -6 -23 -6q-4 0 -9 1q-16 3 -24 15q-6 9 -6 22z" />
<glyph unicode="b" horiz-adv-x="1041" d="M110 535v980q0 28 13 42q12 12 28 12t28 -12q13 -15 13 -42v-976q0 -279 111 -383q79 -74 227 -74q149 0 228 74q111 104 111 383t-113 383q-79 73 -226 73q-118 0 -192 -48q-20 -12 -40 -12h-8q-18 1 -29 13q-6 7 -6 14q0 2 1 6q6 19 34 38q95 60 240 60q183 0 287 -95 q134 -125 134 -432t-133 -431q-104 -97 -288 -97t-288 97q-132 123 -132 427z" />
<glyph unicode="c" horiz-adv-x="999" d="M90 538v1q0 306 133 430q103 95 282 97h3q300 -5 399 -224q2 -7 2 -14q0 -13 -6 -22q-8 -12 -24 -15q-5 -1 -9 -1q-12 0 -23 6q-16 10 -22 38q-115 158 -317 161h-1q-145 -1 -223 -74q-111 -104 -111 -382q0 -279 111 -383q78 -73 223 -74h1q202 3 317 161q6 28 22 38 q11 6 23 6q4 0 9 -1q16 -3 24 -15q6 -9 6 -22q0 -7 -2 -14q-99 -219 -399 -224h-3q-179 2 -282 97q-133 124 -133 430z" />
<glyph unicode="d" horiz-adv-x="1041" d="M90 539q0 307 134 432q104 95 287 95q145 0 240 -60q28 -19 34 -38q1 -4 1 -6q0 -7 -6 -14q-11 -12 -29 -13h-8q-20 0 -40 12q-74 48 -192 48q-147 0 -226 -73q-113 -104 -113 -383t111 -383q79 -74 228 -74q148 0 227 74q111 104 111 383v976q0 27 13 42q12 12 28 12 t28 -12q13 -14 13 -42v-980q0 -304 -132 -427q-104 -97 -288 -97t-288 97q-133 124 -133 431z" />
<glyph unicode="e" horiz-adv-x="1002" d="M90 539q0 306 133 431q104 96 288 96q201 0 311 -125q78 -89 78 -195q0 -31 -7 -63q-22 -112 -116 -182q-104 -77 -266 -77h-249q-24 0 -37 12q-10 10 -10 24t10 24q13 12 37 12l249 -1q112 0 191 46q90 53 110 154q4 25 4 48q0 85 -60 154q-86 98 -245 98 q-148 0 -227 -74q-112 -103 -112 -382q0 -280 113 -383q78 -73 223 -74h3q202 3 317 161q6 28 22 38q11 6 23 6q4 0 9 -1q16 -3 24 -15q6 -9 6 -22q0 -7 -2 -14q-99 -219 -399 -224h-3q-180 1 -283 96q-135 125 -135 432z" />
<glyph unicode="f" horiz-adv-x="797" d="M30 1016q0 13 10 23q13 12 37 12h148v161q0 156 67 249q78 108 239 108q148 0 220 -82q16 -17 16 -31v-5q-1 -12 -12 -21q-11 -7 -25 -7h-7q-20 3 -36 21q-49 54 -156 54q-118 0 -173 -80q-50 -73 -50 -206v-161h357q24 0 37 -12q10 -10 10 -23q0 -14 -10 -24 q-13 -12 -37 -12h-357l1 -915q0 -27 -14 -42q-12 -12 -28 -12t-27 12q-14 15 -14 42l-1 915h-148q-24 0 -37 12q-10 10 -10 24z" />
<glyph unicode="g" horiz-adv-x="995" d="M40 -62q0 163 105 242q21 16 38 16q1 0 3 -1q16 -2 25 -15q6 -9 6 -19q0 -4 -1 -9q-4 -20 -27 -34q-66 -60 -66 -180q0 -136 119 -202q88 -47 219 -47q145 0 234 83q104 97 104 288v243q-136 -115 -304 -115q-79 0 -142 18q-88 24 -143 82q-102 106 -102 339 q0 218 103 324q97 100 284 100h392q25 0 38 -12q10 -10 10 -23q0 -14 -10 -24q-13 -12 -37 -12h-393q-149 0 -220 -75q-84 -86 -84 -278q0 -207 82 -293q72 -75 222 -75q90 0 177 44q108 53 121 138q6 35 6 136v245q0 27 13 42q12 12 28 12t28 -12q13 -15 13 -42 q0 -131 1 -379v-382q0 -227 -121 -341q-109 -102 -300 -102q-196 0 -303 72q-118 80 -118 248z" />
<glyph unicode="h" horiz-adv-x="1035" d="M110 65v1451q0 27 14 42q12 12 28 12t27 -12q14 -15 14 -42v-597q48 47 52 52q104 95 286 95q178 0 274 -92q119 -115 120 -431v-478q0 -27 -14 -42q-12 -12 -28 -12t-27 12q-14 15 -14 42v478q-1 290 -99 384q-71 68 -212 68q-122 0 -230 -72t-108 -145v-713 q0 -27 -14 -42q-11 -12 -27 -12t-28 12q-14 15 -14 42z" />
<glyph unicode="i" horiz-adv-x="461" d="M0 1016q0 13 11 23q13 12 37 12h61q148 -1 191 -36q50 -42 51 -190v-760q0 -27 -14 -42q-12 -12 -28 -12t-27 12q-14 15 -14 42v760q0 100 -29 127q-28 27 -130 28h-61q-24 0 -37 12q-11 10 -11 24zM182 1299q0 32 22 54t54 22t54 -22t22 -54q0 -31 -22 -53.5t-54 -22.5 t-54 22.5t-22 53.5z" />
<glyph unicode="j" horiz-adv-x="532" d="M-120 -264q1 12 12 21q11 7 24 7q3 0 8 -1q21 -2 37 -21q49 -53 155 -53q118 0 174 80q49 72 49 201v855q0 99 -28 127q-28 27 -130 28h-62q-24 0 -37 12q-10 10 -10 24q0 13 10 23q13 12 37 12h62q147 -1 190 -36q51 -42 51 -190v-850q0 -156 -66 -249 q-78 -108 -240 -108q-147 0 -220 82q-16 17 -16 33v3zM230 1299q0 32 22 54t54 22t54 -22t22 -54q0 -31 -22 -53.5t-54 -22.5t-54 22.5t-22 53.5z" />
<glyph unicode="k" horiz-adv-x="964" d="M110 65v1449q0 28 14 43q11 12 27 12t28 -12q14 -15 14 -42v-1450q0 -27 -14 -42q-12 -12 -28 -12t-27 12q-14 15 -14 42zM221 539q0 121 616 515q19 12 36 12q4 0 7 -1q18 -2 28 -14q6 -8 6 -17q0 -3 -1 -6q-3 -16 -26 -31q-96 -61 -303 -216q-264 -197 -264 -241 q0 -45 264 -242q208 -157 303 -216q23 -15 26 -31q1 -3 1 -6q0 -9 -7 -17q-9 -12 -27 -14q-3 -1 -7 -1q-17 0 -35 11q-183 116 -355 249q-262 201 -262 266z" />
<glyph unicode="l" horiz-adv-x="520" d="M110 251v1264q0 27 13 42q12 12 28 12t28 -12q13 -15 13 -43v-1263q1 -98 28 -127q29 -27 131 -28h62q24 0 37 -12q10 -10 10 -23q0 -14 -10 -24q-13 -12 -37 -12h-62q-147 2 -190 36q-51 42 -51 190z" />
<glyph unicode="m" horiz-adv-x="1766" d="M110 65v475q0 306 135 431q104 95 286 95q178 0 274 -92q37 -36 83 -128q50 89 88 125q104 95 287 95q177 0 274 -92q118 -115 119 -431v-478q0 -27 -14 -42q-11 -12 -27 -12t-28 12q-14 15 -14 42v478q0 290 -99 384q-71 68 -211 68q-147 0 -226 -73 q-113 -104 -113 -399v-458q0 -27 -14 -42q-11 -12 -27 -12t-28 12q-14 15 -14 42v464q0 303 -98 398q-71 68 -212 68q-147 0 -226 -73q-112 -104 -113 -382v-475q0 -27 -13 -42q-12 -12 -28 -12t-28 12q-13 15 -13 42z" />
<glyph unicode="n" horiz-adv-x="1035" d="M110 64v475q0 306 135 431q104 95 286 95q178 0 274 -92q119 -115 119 -431l1 -478q0 -27 -14 -42q-12 -12 -28 -12t-27 12q-14 15 -14 42v478q-1 290 -99 384q-71 68 -212 68q-147 0 -226 -73q-112 -104 -112 -382v-475q0 -27 -14 -42q-12 -12 -28 -12t-27 12 q-14 15 -14 42z" />
<glyph unicode="o" horiz-adv-x="1022" d="M90 538q0 307 135 432q104 95 286 95t286 -95q135 -125 135 -432t-133 -431q-104 -97 -288 -97t-288 97q-133 124 -133 431zM173 538q0 -279 111 -383q79 -74 227 -74t227 74q111 104 111 383t-112 383q-80 73 -226 73t-226 -73q-112 -104 -112 -383z" />
<glyph unicode="p" horiz-adv-x="1042" d="M110 -366v904q0 306 133 431q104 96 288 96t288 -96q133 -125 133 -431q0 -307 -135 -431q-8 -8 -17 -14q-101 -83 -269 -83q-145 0 -241 61q-28 18 -33 36q-1 5 -1 8q0 7 6 13q10 12 28 14h7q21 0 40 -13q75 -48 194 -48q147 0 225 72q5 4 8 9q105 104 105 376 q0 279 -111 382q-79 74 -227 74t-227 -74q-112 -103 -112 -382q1 -430 1 -785v-119q0 -27 -14 -42q-12 -12 -28 -12t-27 12q-14 15 -14 42z" />
<glyph unicode="q" horiz-adv-x="1037" d="M90 538q0 306 133 431q104 96 288 96t288 -96q133 -125 134 -430v-510q0 -85 1 -106q6 -64 26 -112q50 -123 195 -123q107 0 156 53q16 19 37 21q5 1 8 1q12 0 23 -8q12 -8 13 -20v-3q0 -16 -16 -33q-73 -82 -221 -82q-161 0 -239 108q-65 92 -65 268v5v541 q-1 278 -113 381q-79 74 -227 74t-227 -74q-111 -103 -111 -382q0 -272 105 -376q3 -5 8 -9q78 -72 225 -72q119 0 194 48q19 13 40 13h7q18 -2 28 -14q6 -6 6 -13q0 -3 -1 -8q-5 -18 -33 -36q-96 -61 -241 -61q-168 0 -269 83q-9 6 -17 14q-135 124 -135 431z" />
<glyph unicode="r" horiz-adv-x="747" d="M110 64v947q0 28 13 43q11 11 28 11t28 -11q13 -15 13 -43v-96q166 150 339 150q97 0 168 -26q12 -5 16 -17q2 -6 2 -11q0 -8 -3 -15q-11 -25 -30 -25q-10 0 -23 5q-55 18 -130 18q-125 0 -232 -71q-107 -72 -107 -145v-714q0 -27 -13 -42q-12 -12 -28 -12t-28 12 q-13 15 -13 42z" />
<glyph unicode="s" horiz-adv-x="879" d="M33 249q0 13 6 22q8 12 24 15q5 1 9 1q12 0 23 -6q16 -10 22 -38q115 -158 317 -161h28v1q12 0 50 9q101 23 156 97q45 61 45 124q0 50 -28 101q-19 36 -56 65q-42 33 -125 68q-193 81 -239 129q-63 65 -63 161q0 93 60 156q61 66 163 71q10 1 19 1q89 0 155 -53 q80 -65 80 -175q0 -24 -13 -37q-12 -11 -29 -11q-18 0 -30 11q-13 13 -13 37q0 69 -43 113q-41 42 -108 42h-13q-68 -4 -107 -50q-36 -42 -36 -105q0 -70 42 -114q36 -37 211 -110q167 -71 221 -168q38 -68 38 -133q0 -82 -60 -162q-72 -96 -201 -128q-51 -12 -76 -12v1h-28 q-300 5 -399 224q-2 7 -2 14z" />
<glyph unicode="t" horiz-adv-x="807" d="M30 1012q0 13 10 23q13 12 37 12h148l1 467q0 27 13 42q12 12 28 12t28 -12q13 -14 13 -42v-467h357q24 0 37 -12q10 -10 10 -23q0 -14 -10 -24q-13 -12 -38 -12h-356v-608q0 -134 50 -207q55 -80 173 -80q106 0 155 54q16 18 38 21q3 1 5 1q15 0 25 -8q12 -9 13 -21v-3 q0 -16 -16 -33q-73 -82 -220 -82q-161 0 -240 109q-66 92 -66 249v608h-148q-24 0 -37 12q-10 10 -10 24z" />
<glyph unicode="u" horiz-adv-x="1034" d="M110 543v468q0 28 14 43q11 11 27 11q17 0 28 -11q14 -15 14 -43v-468q0 -278 112 -382q79 -73 226 -73q141 0 212 68q98 94 99 384v471q0 28 13 43q11 11 28 11t28 -11q13 -15 13 -43v-471q0 -316 -119 -431q-96 -92 -274 -92q-182 0 -286 95q-135 125 -135 431z" />
<glyph unicode="v" horiz-adv-x="954" d="M60 1027q0 10 4 19q7 12 22 17q7 2 12 2q10 0 19 -5q18 -10 27 -32q44 -126 116 -340q85 -253 139 -420.5t88 -167.5q36 0 87.5 172t128.5 417q67 216 108 339q7 23 24 32q10 5 20 5q6 0 12 -1q16 -4 23 -17q4 -7 4 -17q0 -9 -4 -20q-59 -180 -136 -428 q-74 -237 -97 -306q-43 -130 -72 -188q-41 -81 -95 -82q-54 0 -98 82q-30 56 -76 187q-23 64 -105 306q-82 245 -147 426q-4 11 -4 20z" />
<glyph unicode="w" horiz-adv-x="1717" d="M60 1032q0 9 4 16q7 13 22 18q7 2 12 2q10 0 19 -5q19 -10 26 -31q45 -128 117 -342q87 -255 117 -342q34 -98 56 -153q33 -80 54 -84q26 0 57 79q8 20 17 44q28 76 128 386q19 60 86 295q18 62 28 88q22 53 59 54h3q39 0 61 -53q10 -26 28 -89q67 -235 87 -297 q101 -308 129 -383q14 -37 26 -67q23 -56 43 -56q21 0 44 55q25 62 66 182q30 91 112 341q69 215 113 341q7 22 24 31q11 5 21 5q5 0 11 -1q15 -4 22 -18q5 -7 5 -16t-4 -20q-63 -182 -142 -428q-78 -240 -101 -306q-44 -131 -74 -187q-42 -83 -96 -83q-45 0 -80 54 q-24 36 -54 112q-25 63 -63 178q-13 39 -60 183.5t-76 263.5t-42 119t-42 -118.5t-75.5 -262.5t-59.5 -185q-39 -115 -63 -179q-29 -76 -54 -113q-35 -54 -80 -54q-54 0 -98 82q-30 57 -77 188q-22 63 -104 307q-83 246 -148 428q-4 12 -4 21z" />
<glyph unicode="x" horiz-adv-x="960" d="M60 39q0 13 11 30q65 89 147 211q82 121 104 152q44 61 86 104q-42 42 -86 103q-22 31 -104 152q-82 122 -147 212q-11 17 -11 29q0 4 1 7q2 13 15 20q9 5 20 5q5 0 12 -1q20 -5 34 -24q45 -62 117 -170q85 -125 118 -171q70 -101 116 -130q42 30 108 130q32 50 108 171 q68 108 109 169q13 20 33 26q7 2 12 2q10 0 20 -5q14 -7 17 -19v-8q0 -13 -10 -30q-59 -87 -136 -211q-74 -117 -97 -152q-42 -62 -82 -105q40 -44 82 -106q23 -35 97 -152q77 -123 136 -212q10 -15 10 -29v-8q-3 -11 -17 -18q-10 -5 -22 -5q-5 0 -11 1q-19 6 -32 26 q-41 61 -109 169q-76 121 -108 171q-65 99 -108 132q-46 -31 -116 -132q-33 -46 -118 -171q-72 -108 -117 -170q-14 -19 -34 -24q-7 -1 -12 -1q-11 0 -20 5q-13 7 -15 20q-1 3 -1 7z" />
<glyph unicode="y" horiz-adv-x="992" d="M40 -63q0 163 105 242q21 16 38 16q1 0 3 -1q16 -2 25 -15q6 -9 6 -19q0 -4 -1 -9q-4 -20 -27 -34q-66 -60 -66 -180q0 -136 120 -202q88 -47 218 -47q145 0 234 83q104 97 104 288v249q-140 -128 -293 -128h-10q-158 4 -259 97q-135 125 -135 431v303q0 28 14 43 q11 11 27 11q17 0 28 -11q13 -15 13 -43v-303q1 -278 113 -382q80 -75 191 -75q56 0 119 20q82 25 134 77q58 59 58 131v532q0 28 14 43q11 11 27 11q17 0 28 -11q14 -15 14 -43l-1 -228h1v-723q0 -227 -121 -341q-109 -102 -300 -102q-196 0 -303 72q-118 80 -118 248z" />
<glyph unicode="z" horiz-adv-x="836" d="M70 107q0 64 87 174q10 13 238 261q205 221 220 243q41 60 55 101q7 23 7 37q0 12 -5 22q-19 34 -124 34h-416q-24 0 -37 12q-10 10 -10 24q0 13 10 23q13 12 38 12h415q157 0 198 -74q12 -22 12 -51q0 -70 -73 -177q-17 -24 -224 -250l-218 -236q-73 -89 -97 -161 q39 -5 50 -5h523q24 0 37 -12q10 -10 10 -23q0 -14 -10 -24q-13 -12 -37 -12h-523q-87 0 -116 45q-10 16 -10 37z" />
<glyph unicode="{" horiz-adv-x="546" d="M110 761q0 12 8 20q12 10 33 10h17q43 0 60 19q41 42 48 166q0 13 -2 155v160q0 132 8 189q16 115 79 153q34 21 80 21h20q25 0 25 -23t-26 -23h-19q-25 0 -43 -11q-63 -38 -63 -299v-193q0 -129 -9 -190q-14 -93 -78 -154q64 -61 78 -154q9 -61 9 -190v-252 q0 -260 63 -298q18 -11 43 -11h19q26 0 26 -23t-26 -23h-19q-46 0 -80 20q-63 38 -79 154q-8 57 -8 188v255q0 227 -40 279q-26 25 -66 25h-18q-20 0 -32 10q-8 8 -8 20z" />
<glyph unicode="|" horiz-adv-x="276" d="M110 -351v1993q0 30 12 46q7 10 16 10t16 -10q12 -16 12 -47v-1991q0 -31 -12 -48q-7 -10 -16 -10t-16 10q-12 17 -12 47z" />
<glyph unicode="}" horiz-adv-x="546" d="M60 -167q0 23 26 23h19q25 0 43 11q63 38 63 298v252q0 129 9 190q14 93 78 154q-64 61 -78 154q-9 61 -9 190v193q0 261 -63 299q-18 11 -43 11h-19q-26 0 -26 23t25 23h20q46 0 80 -21q63 -38 79 -153q8 -57 8 -189v-160q-2 -142 -2 -155q7 -124 48 -166q17 -19 60 -19 h17q21 0 33 -10q8 -8 8 -20t-8 -20q-12 -10 -32 -10h-18q-40 0 -66 -25q-40 -52 -40 -279v-255q0 -131 -8 -188q-16 -116 -79 -154q-34 -20 -80 -20h-19q-26 0 -26 23z" />
<glyph unicode="~" horiz-adv-x="1043" d="M110 722q0 9 8 14q11 10 21 10q13 0 31 -17q41 -40 94 -50q13 -2 28 -2q75 0 218 55q147 54 217 61q14 1 27 1q98 0 166 -65q13 -13 13 -26q0 -8 -8 -14q-11 -9 -20 -9q-14 0 -32 17q-37 35 -84 44q-11 3 -26 3q-73 0 -229 -59q-142 -52 -219 -57q-10 -1 -19 -1 q-101 0 -172 70q-14 13 -14 25z" />
<glyph unicode="&#xa1;" horiz-adv-x="373" d="M90 990q0 32 22 54t54 22t54 -22t22 -54t-22 -54t-54 -22t-54 22t-22 54zM121 -440q0 218 10 608q9 320 9 525q0 21 11 32q8 8 19 8q12 0 20 -8q10 -11 10 -32q0 -205 10 -525q9 -390 9 -608q0 -19 -13 -29q-14 -11 -36 -11t-36 11q-13 10 -13 29z" />
<glyph unicode="&#xa2;" horiz-adv-x="983" d="M80 539q0 307 135 432q104 95 287 95q47 0 110 -9q34 125 66 240q4 14 19 14q7 0 16 -2q25 -6 25 -16q0 -3 -1 -8l-67 -244q182 -74 231 -280q2 -8 2 -15q0 -13 -6 -22q-9 -12 -24 -15q-5 -1 -10 -1q-12 0 -22 6q-16 11 -22 34q-29 123 -103 183q-17 15 -65 39l-242 -882 q58 -6 88 -6h1q202 3 317 161q6 28 22 38q11 6 23 6q4 0 9 -1q16 -3 24 -15q6 -9 6 -22q0 -7 -2 -14q-99 -219 -399 -224h-3q-43 0 -104 10l-65 -238q-4 -15 -19 -15q-7 0 -16 2q-25 6 -25 15q0 2 1 6q29 105 67 244q-77 33 -121 73q-133 124 -133 431zM163 539 q0 -279 111 -383q22 -22 79 -50q58 214 117 429q44 163 124 452q-58 8 -92 8q-147 0 -226 -73q-113 -104 -113 -383z" />
<glyph unicode="&#xa3;" horiz-adv-x="1028" d="M110 677q0 9 7 16q9 9 27 9h154q-28 189 -70 400q0 250 91 351q84 95 246 96h298q28 0 44 -14q12 -10 12 -24t-13 -24q-15 -14 -43 -14h-297q-119 0 -179 -65q-59 -68 -69 -217q-3 -39 -3 -94q49 -208 76 -395h513q18 0 27 -9q7 -7 7 -16q0 -10 -7 -17q-9 -8 -27 -8h-508 q58 -440 -92 -551h559q28 0 44 -14q12 -10 12 -24t-13 -24q-15 -14 -43 -14h-658q-28 0 -43 14q-13 10 -13 24t7 20q109 21 147 151.5t2 417.5h-161q-18 0 -27 8q-7 7 -7 17z" />
<glyph unicode="&#xa4;" horiz-adv-x="916" d="M110 226v3q0 17 16 32l120 121q-55 82 -55 165t55 165l-120 121q-16 15 -16 32v3q0 11 8 19t19 8h3q16 0 32 -17l121 -119q82 55 165 55t165 -55l121 120q15 16 30 16h4q11 0 19 -9q9 -8 9 -19v-3q-1 -16 -16 -31l-121 -120q56 -83 56 -166q0 -84 -55 -166l120 -120 q15 -15 16 -32q0 -13 -9 -22t-21 -9q-16 1 -32 17l-120 120q-83 -56 -166 -56q-84 0 -166 56l-121 -120q-16 -16 -31 -17q-13 0 -22 10q-8 7 -8 18zM248 547q0 -87 61.5 -148.5t148.5 -61.5t148.5 61.5t61.5 148.5q0 86 -61.5 147.5t-148.5 61.5t-148.5 -61.5t-61.5 -147.5z " />
<glyph unicode="&#xa5;" horiz-adv-x="1163" d="M70 1520v11q2 11 15 19q7 5 15 5q3 0 7 -1q17 -5 29 -26q51 -86 154 -272q101 -180 156 -273q55 -92 88 -130q31 -42 52 -42t52 42q33 38 88 130q55 93 154 273q104 186 154 272q12 21 28 26q4 1 8 1q8 0 15 -5q12 -7 14 -22q1 -3 1 -8q0 -15 -11 -33q-51 -88 -154 -274 q-100 -180 -154 -271q-78 -134 -175 -221h334q18 0 27 -9q7 -7 7 -16q0 -10 -7 -17q-9 -8 -27 -8h-322v-150h322q18 0 27 -9q7 -7 7 -16q0 -10 -7 -17q-9 -8 -27 -8h-322v-403q0 -30 -13 -47q-8 -11 -20 -11t-21 12q-13 16 -13 45v404h-321q-18 0 -27 8q-7 7 -7 17q0 9 7 16 q9 9 27 9h321v150h-321q-18 0 -27 8q-7 7 -7 17q0 9 7 16q9 9 27 9h331q-55 58 -73 79q-39 43 -99 142q-53 91 -153 271q-104 187 -156 273q-10 18 -10 34z" />
<glyph unicode="&#xa6;" horiz-adv-x="358" d="M110 243v857q0 13 12 20q7 4 16 4t16 -4q12 -7 12 -20v-856q0 -14 -12 -21q-7 -4 -16 -4t-16 4q-12 7 -12 20zM110 -287v857q0 13 12 20q7 4 16 4t16 -4q12 -7 12 -20v-856q0 -14 -12 -21q-7 -4 -16 -4t-16 4q-12 7 -12 20z" />
<glyph unicode="&#xa7;" horiz-adv-x="1040" d="M10 59v8q1 24 15 38q11 11 27 11h3q18 0 29 -12q14 -13 14 -39v-8q0 -125 58 -219q65 -105 190 -153q83 -32 171 -32q59 0 119 15q154 37 239 152q70 95 70 194q0 78 -43 157q-32 57 -87 101q-64 51 -189 104q-280 119 -347 189q-88 92 -88 230q0 144 95 234 q35 32 114 73q-57 38 -68 50q-63 65 -63 161q0 93 60 156q61 66 163 71q10 1 19 1q89 0 155 -53q80 -65 80 -175q0 -24 -13 -37q-12 -11 -29 -11q-18 0 -30 11q-13 13 -13 37q0 69 -43 113q-41 42 -108 42h-13q-68 -4 -107 -50q-36 -42 -36 -105q0 -70 42 -114 q27 -29 77 -54.5t134 -55.5q167 -71 221 -168q38 -68 38 -133q0 -82 -60 -162q-76 -102 -236 -139q77 -34 93 -41q241 -103 318 -242q49 -91 49 -188q0 -14 -1 -29q-8 -111 -80 -209q-103 -138 -286 -184q-74 -18 -146 -18q-104 0 -205 38q-149 57 -229 180q-73 115 -73 265 zM279 795q0 -110 67 -180q23 -25 64 -42.5t92 -14.5h27v1q12 0 50 9q101 23 156 97q45 61 45 124q0 50 -28 101q-19 36 -56 65q-42 33 -101.5 57t-128 16.5t-128.5 -64.5q-59 -69 -59 -169z" />
<glyph unicode="&#xa8;" horiz-adv-x="722" d="M110 1299q0 32 22 54t54 22t54 -22t22 -54q0 -31 -22 -53.5t-54 -22.5t-54 22.5t-22 53.5zM460 1299q0 32 22 54t54 22t54 -22t22 -54q0 -31 -22 -53.5t-54 -22.5t-54 22.5t-22 53.5z" />
<glyph unicode="&#xa9;" horiz-adv-x="1584" d="M80 786q0 316 209 539t503 223q295 0 503.5 -223t208.5 -539t-208.5 -538.5t-503.5 -222.5q-294 0 -503 222.5t-209 538.5zM124 786q0 -304 195.5 -519t472.5 -215t472.5 215t195.5 519t-195.5 519.5t-472.5 215.5t-472.5 -215.5t-195.5 -519.5zM430 783q0 216 57 335 q77 165 272 165h12q299 -5 309 -262v-6q0 -10 -4 -16q-5 -5 -12 -6h-3q-6 0 -12 5q-8 6 -9 18q-12 233 -269 234h-12q-98 0 -162 -47q-126 -99 -126 -420t125 -419q62 -49 163 -49h12q256 2 269 235q1 12 9 18q6 5 12 5h3q6 -1 12 -7q4 -5 4 -15v-6q-10 -257 -309 -262h-12 q-195 0 -273 165q-56 117 -56 335z" />
<glyph unicode="&#xaa;" horiz-adv-x="736" d="M100 1366q0 2 1 6q46 177 256 177q118 0 184 -56q81 -68 85 -230v-305q0 -11 -6 -17q-5 -5 -12 -5q-8 0 -14 5q-6 6 -6 17v181q0 57 -75 97q-68 36 -156 36q-109 0 -167 -62q-44 -44 -44 -100q0 -16 4 -31q8 -41 36 -71q1 -2 3 -3q58 -49 140.5 -33t146.5 61q11 6 23 6h4 q9 -1 13 -6h1v-1q-2 -7 -19 -17q-78 -58 -172 -68q-16 -2 -33 -2q-69 0 -120 36q-49 41 -60 95q-4 18 -4 36q0 59 48 110q71 73 200 73q119 0 186 -58q2 -1 45 -44v83q0 51 -18 108q-23 66 -59 96q-55 46 -154 46q-93 0 -147 -40q-51 -38 -71 -115q-3 -11 -11 -15 q-4 -3 -10 -3q-2 0 -4 1q-9 1 -12 5q-2 3 -2 7z" />
<glyph unicode="&#xab;" horiz-adv-x="1372" d="M110 548q1 18 98 84l441 301q6 4 9 4h3q6 -3 9 -10q2 -5 2 -11q0 -5 -1 -9q-4 -13 -21 -25l-409 -278q-45 -32 -47 -55v-2q0 -23 45 -54l411 -284q17 -11 21 -26q2 -5 2 -10t-2 -10q-3 -7 -8 -9h-3q-5 0 -11 4l-456 314q-83 57 -83 76zM649 548q1 18 98 84l441 301 q6 4 9 4h3q6 -3 9 -10q2 -5 2 -11q0 -5 -1 -9q-4 -13 -21 -25l-409 -278q-45 -32 -47 -55v-2q0 -23 45 -54l411 -284q17 -11 21 -26q2 -5 2 -10t-2 -10q-3 -7 -8 -9h-3q-5 0 -11 4l-456 314q-83 57 -83 76z" />
<glyph unicode="&#xac;" horiz-adv-x="964" d="M0 546q0 9 7 16q9 9 27 9h728q7 0 13 -2q3 0 6 -2q5 -2 8 -5q7 -7 7 -16q0 -3 -1 -8v-271q0 -18 -8 -27q-7 -7 -17 -7q-9 0 -16 7q-9 9 -9 27v254h-711q-18 0 -27 8q-7 7 -7 17z" />
<glyph unicode="&#xad;" horiz-adv-x="608" d="M0 546q0 9 7 16q9 9 27 9h540q18 0 27 -9q7 -7 7 -16q0 -10 -7 -17q-9 -8 -27 -8h-540q-18 0 -27 8q-7 7 -7 17z" />
<glyph unicode="&#xae;" horiz-adv-x="1584" d="M80 786q0 316 209 539t503 223q295 0 503.5 -223t208.5 -539t-208.5 -538.5t-503.5 -222.5q-294 0 -503 222.5t-209 538.5zM124 786q0 -304 195.5 -519t472.5 -215t472.5 215t195.5 519t-195.5 519.5t-472.5 215.5t-472.5 -215.5t-195.5 -519.5zM491 345v614q0 36 1 62 q8 147 68 213q62 70 185 70q92 0 164 -40q74 -39 113 -112q33 -61 33 -131v-5q-2 -73 -38 -133q-78 -124 -251 -125h-120q28 -52 38 -65q46 -62 108 -120q189 -178 345 -214q16 -4 21 -12q2 -3 2 -6v-4q-2 -4 -9 -8q-5 -3 -12 -3q-6 0 -12 1q-190 46 -395 254 q-66 69 -106 130q-22 36 -22 62v1q0 15 20 15l141 1q150 0 216 107q34 55 34 122q0 64 -29 121q-71 132 -241 132q-103 0 -154 -56q-60 -66 -60 -257v-613q0 -16 -7 -24q-5 -5 -13 -5t-13 5q-7 8 -7 23z" />
<glyph unicode="&#xaf;" horiz-adv-x="620" d="M0 1287q0 9 7 16q9 9 27 9h540q18 0 27 -9q7 -7 7 -16q0 -10 -7 -17q-9 -8 -27 -8h-540q-18 0 -27 8q-7 7 -7 17z" />
<glyph unicode="&#xb0;" horiz-adv-x="653" d="M110 1313q0 90 63 153t154 63q90 0 153 -63t63 -153q0 -89 -63 -153t-153 -64q-91 0 -154 64t-63 153zM174 1313q0 -62 44.5 -107t108.5 -45q63 0 107.5 45t44.5 107t-44.5 106.5t-107.5 44.5q-64 0 -108.5 -44.5t-44.5 -106.5z" />
<glyph unicode="&#xb1;" horiz-adv-x="1098" d="M110 50q0 9 7 16q9 9 27 9h760q18 0 27 -9q7 -7 7 -16q0 -10 -7 -17q-9 -8 -27 -8h-760q-18 0 -27 8q-7 7 -7 17zM110 742q0 9 7 16q9 9 27 9h355v355q0 18 9 27q7 7 16 7t16 -7q9 -9 9 -28v-354h355q18 0 27 -9q7 -7 7 -16q0 -10 -7 -17q-9 -8 -27 -8h-355v-355 q0 -18 -9 -28q-6 -6 -16 -6t-16 6q-9 10 -9 28v355h-355q-18 0 -27 8q-7 7 -7 17z" />
<glyph unicode="&#xb2;" horiz-adv-x="746" d="M110 1281q0 111 65 188q72 84 189 84q89 0 152 -38q108 -66 108 -216q0 -65 -72 -152q-41 -50 -132 -132q-13 -12 -38 -35q-192 -172 -207 -194q-8 -13 -8 -24q0 -25 33 -25l408 1q15 0 22 -7q6 -5 6 -14q0 -8 -6 -14q-7 -7 -22 -7l-419 -1q-49 0 -68 23q-10 13 -10 29 q0 10 3 20q15 51 97 128q26 23 72 61q49 41 63 54q25 21 39 33q190 174 190 256q0 97 -52 152q-55 59 -159 59q-87 0 -142 -57q-63 -68 -63 -172q0 -14 -7 -22q-7 -6 -17 -6t-18 6q-7 8 -7 22z" />
<glyph unicode="&#xb3;" horiz-adv-x="701" d="M60 969q0 14 7 21t17 7t17 -7t7 -21q0 -105 61 -168q63 -66 177 -66q112 0 176 66q60 63 60 168q0 94 -67 159q-69 66 -169 66q-16 0 -25 8q-6 6 -6 13q0 9 6 14q9 8 25 8q58 0 97 41q39 40 39 94q0 59 -36 96q-38 40 -100 40q-63 0 -101 -40q-36 -37 -36 -96 q0 -14 -7 -21q-8 -7 -17 -7q-10 0 -17 7t-7 21q0 77 50 126q51 52 135 52q82 0 134 -52q51 -49 51 -126q0 -83 -85 -151q96 -41 140 -106q45 -66 45 -146q0 -123 -75 -198q-77 -78 -210 -78q-134 0 -211 78q-75 75 -75 198z" />
<glyph unicode="&#xb4;" horiz-adv-x="543" d="M110 1189q0 8 22 27l247 208q13 11 24 11q10 0 23 -12q7 -7 7 -15q0 -11 -13 -21l-273 -191q-17 -14 -27 -14q-4 0 -7 4q-3 2 -3 3z" />
<glyph unicode="&#xb5;" horiz-adv-x="1130" d="M110 -269v733h2q-2 51 -2 79v468q0 28 14 43q11 11 27 11q17 0 28 -11q14 -15 14 -43v-468q0 -278 112 -382q79 -73 226 -73q141 0 212 68q98 94 99 384v471q0 28 13 43q11 11 28 11t28 -11q13 -15 13 -43v-471q0 -316 -119 -431q-96 -92 -274 -92q-182 0 -286 95 q-4 5 -52 52v-433q0 -28 -14 -43q-11 -11 -28 -11q-16 0 -27 11q-14 15 -14 43z" />
<glyph unicode="&#xb6;" horiz-adv-x="974" d="M-58 1233q0 136 102.5 232.5t248.5 96.5h391q8 0 14 -8q11 -11 11 -32v-1461q0 -20 -11 -32q-6 -8 -17 -8t-17 8q-11 12 -11 31v1462h-326v-1461q0 -20 -11 -31q-7 -9 -17 -9t-17 9q-11 11 -11 31v843q-140 16 -227 98q-102 96 -102 231z" />
<glyph unicode="&#xb7;" horiz-adv-x="508" d="M107 678q0 28 19 46.5t46 18.5t46 -18.5t19 -46.5q0 -27 -19 -45.5t-46 -18.5t-46 18.5t-19 45.5z" />
<glyph unicode="&#xb8;" horiz-adv-x="529" d="M110 -262q4 25 35 25q18 -8 48 -19q153 -45 170 78q-14 44 -62 59q-42 0 -105 -4q-22 7 -22 23q35 106 62 106h2q22 -2 22 -26l-15 -23l-40 -51q186 30 207 -69v-11q1 -8 1 -14q0 -67 -56 -102q-53 -32 -107 -32q-14 0 -29 3q-70 11 -105 43q-6 9 -6 14z" />
<glyph unicode="&#xb9;" horiz-adv-x="737" d="M200 1278v2q0 10 9 20q17 20 45 53q34 41 44 53q56 65 92 97q47 40 82 40q8 0 16 -2q49 -15 49 -114v-703q0 -14 -7 -21t-17 -7t-17 7t-7 21v703q0 46 -14 77q-31 -12 -59 -39q-31 -27 -79 -84q-11 -12 -44 -53q-28 -34 -46 -53q-9 -11 -22 -12q-2 -1 -4 -1q-7 0 -13 4 q-7 6 -8 12z" />
<glyph unicode="&#xba;" horiz-adv-x="736" d="M79 869q0 184 89 259q69 57 189 57t189 -57q89 -75 89 -259t-88 -259q-68 -58 -190 -58q-121 0 -190 58q-88 75 -88 259zM115 841q0 9 3 16q5 9 14 9h355q9 0 13 -9q4 -7 4 -16q0 -10 -4 -17q-4 -8 -13 -8h-355q-9 0 -14 8q-3 7 -3 17zM134 869q0 -168 73 -230 q53 -44 150 -44q98 0 150 44q73 62 73 230q0 167 -74 230q-52 43 -149 43q-96 0 -149 -43q-74 -63 -74 -230z" />
<glyph unicode="&#xbb;" horiz-adv-x="1372" d="M110 173q0 5 2 10q4 15 21 26l411 284q45 31 45 54v2q-2 23 -47 55l-409 278q-17 12 -21 25q-1 4 -1 9q0 6 2 11q3 7 9 10h3q3 0 9 -4l441 -301q97 -66 98 -84q0 -19 -83 -76l-456 -314q-6 -4 -11 -4h-3q-5 2 -8 9q-2 5 -2 10zM649 173q0 5 2 10q4 15 21 26l411 284 q45 31 45 54v2q-2 23 -47 55l-409 278q-17 12 -21 25q-1 4 -1 9q0 6 2 11q3 7 9 10h3q3 0 9 -4l441 -301q97 -66 98 -84q0 -19 -83 -76l-456 -314q-6 -4 -11 -4h-3q-5 2 -8 9q-2 5 -2 10z" />
<glyph unicode="&#xbc;" horiz-adv-x="1526" d="M110 1278v2q0 10 9 20q17 20 45 53q34 41 44 53q56 65 92 97q47 40 82 40q8 0 16 -2q49 -15 49 -114v-703q0 -14 -7 -21t-17 -7t-17 7t-7 21v703q0 46 -14 77q-31 -12 -59 -39q-31 -27 -79 -84q-11 -12 -44 -53q-28 -34 -46 -53q-9 -11 -22 -12q-2 -1 -4 -1q-7 0 -13 4 q-7 6 -8 12zM409.5 15q-2.5 10 2.5 20l709 1472q7 13 19 15t18 -7t1 -25l-705 -1463q-12 -23 -26 -23h-1q-15 1 -17.5 11zM849 279q0 9 3 20q14 49 94 125q27 24 70 61q51 43 61 53q25 21 37 32q185 168 185 248q0 13 7 20t17 7q9 0 16 -7q8 -7 8 -20q0 -63 -70 -148 q-40 -48 -129 -128q-13 -12 -37 -33q-8 -7 -51 -44q-41 -34 -66 -58q-84 -76 -96 -120v-16q18 -1 26 -1h381v154q0 16 8 24q7 7 16 7t16 -7q8 -8 8 -24v-154h96q13 0 21 -6q6 -6 6 -14t-6 -13q-8 -8 -21 -8h-96v-190q0 -16 -8 -24q-7 -7 -16 -7t-16 7q-8 8 -8 24v190 l-381 -1q-47 0 -65 23q-10 12 -10 28z" />
<glyph unicode="&#xbd;" horiz-adv-x="1650" d="M110 1278v2q0 10 9 20q17 20 45 53q34 41 44 53q56 65 92 97q47 40 82 40q8 0 16 -2q49 -15 49 -114v-703q0 -14 -7 -21t-17 -7t-17 7t-7 21v703q0 46 -14 77q-31 -12 -59 -39q-31 -27 -79 -84q-11 -12 -44 -53q-28 -34 -46 -53q-9 -11 -22 -12q-2 -1 -4 -1q-7 0 -13 4 q-7 6 -8 12zM409.5 15q-2.5 10 2.5 20l709 1472q7 13 19 15t18 -7t1 -25l-705 -1463q-13 -24 -27.5 -23t-17 11zM1014 586q0 111 65 188q72 84 189 84q89 0 152 -38q108 -66 108 -216q0 -65 -72 -152q-41 -50 -132 -132q-13 -12 -38 -35q-192 -172 -207 -194q-8 -13 -8 -24 q0 -25 33 -25l408 1q15 0 22 -7q6 -5 6 -14q0 -8 -6 -14q-7 -7 -22 -7l-419 -1q-49 0 -68 23q-10 13 -10 29q0 10 3 20q15 51 97 128q26 23 72 61q49 41 63 54q25 21 39 33q190 174 190 256q0 97 -52 152q-55 59 -159 59q-87 0 -142 -57q-63 -68 -63 -172q0 -14 -7 -22 q-7 -6 -17 -6t-18 6q-7 8 -7 22z" />
<glyph unicode="&#xbe;" horiz-adv-x="1606" d="M60 969q0 14 7 21t17 7t17 -7t7 -21q0 -105 61 -168q63 -66 177 -66q112 0 176 66q60 63 60 168q0 94 -67 159q-69 66 -169 66q-16 0 -25 8q-6 6 -6 13q0 9 6 14q9 8 25 8q58 0 97 41q39 40 39 94q0 59 -36 96q-38 40 -100 40q-63 0 -101 -40q-36 -37 -36 -96 q0 -14 -7 -21q-8 -7 -17 -7q-10 0 -17 7t-7 21q0 77 50 126q51 52 135 52q82 0 134 -52q51 -49 51 -126q0 -83 -85 -151q96 -41 140 -106q45 -66 45 -146q0 -123 -75 -198q-77 -78 -210 -78q-134 0 -211 78q-75 75 -75 198zM489.5 15q-2.5 10 2.5 20l709 1472q7 13 19 15 t18 -7t1 -25l-705 -1463q-12 -23 -26 -23h-1q-15 1 -17.5 11zM929 279q0 9 3 20q14 49 94 125q27 24 70 61q51 43 61 53q25 21 37 32q185 168 185 248q0 13 7 20t17 7q9 0 16 -7q8 -7 8 -20q0 -63 -70 -148q-40 -48 -129 -128q-13 -12 -37 -33q-8 -7 -51 -44 q-41 -34 -66 -58q-84 -76 -96 -120v-16q18 -1 26 -1h381v154q0 16 8 24q7 7 16 7t16 -7q8 -8 8 -24v-154h96q13 0 21 -6q6 -6 6 -14t-6 -13q-8 -8 -21 -8h-96v-190q0 -16 -8 -24q-7 -7 -16 -7t-16 7q-8 8 -8 24v190l-381 -1q-47 0 -65 23q-10 12 -10 28z" />
<glyph unicode="&#xbf;" horiz-adv-x="1159" d="M110 -37q0 158 228 406q24 26 86 90q50 52 75 79q73 85 73 129v5q-6 69 -88 69h-12q-27 0 -27 25t26 25h13q63 0 101 -31q38 -30 44 -81v-10q0 -56 -58 -133q-35 -46 -157 -168q-244 -247 -244 -405q0 -179 97 -282q102 -110 293 -110q156 0 257 101q122 126 122 324 q0 17 9 26q9 8 21 8t21 -8q9 -9 9 -26q0 -193 -112 -328q-123 -147 -327 -147q-150 0 -259 65q-191 112 -191 377zM478 976q0 32 22 54t54 22t54 -22t22 -54q0 -31 -22 -53t-54 -22t-54 22t-22 53z" />
<glyph unicode="&#xc0;" horiz-adv-x="1405" d="M70 45q0 10 5 23q93 268 213 635q117 358 151 456q68 194 111 277q60 114 129 114t128 -114q43 -83 110 -277q35 -99 151 -456q120 -367 212 -635q5 -13 5 -22q0 -10 -5 -18q-7 -14 -23 -19q-6 -1 -13 -1q-10 0 -21 5q-19 10 -26 33q-45 130 -137 408h-656q-25 0 -39 13 q-10 10 -10 25t10 25q14 13 39 13h631q-24 71 -37 112q-121 368 -144 439q-66 191 -106 280q-42 94 -69 94q-28 0 -70 -94q-40 -89 -106 -280q-24 -70 -145 -439q-110 -336 -200 -596q-8 -23 -26 -33q-11 -5 -22 -5q-7 0 -13 1q-15 5 -23 19q-4 7 -4 17zM454 1891q0 8 7 15 q13 12 23 12q11 0 24 -11l247 -208q22 -19 22 -27q0 -1 -3 -3q-3 -4 -7 -4q-10 0 -27 14l-273 191q-13 10 -13 21z" />
<glyph unicode="&#xc1;" horiz-adv-x="1405" d="M70 45q0 10 5 23q93 268 213 635q117 358 151 456q68 194 111 277q60 114 129 114t128 -114q43 -83 110 -277q35 -99 151 -456q120 -367 212 -635q5 -13 5 -22q0 -10 -5 -18q-7 -14 -23 -19q-6 -1 -13 -1q-10 0 -21 5q-19 10 -26 33q-45 130 -137 408h-656q-25 0 -39 13 q-10 10 -10 25t10 25q14 13 39 13h631q-24 71 -37 112q-121 368 -144 439q-66 191 -106 280q-42 94 -69 94q-28 0 -70 -94q-40 -89 -106 -280q-24 -70 -145 -439q-110 -336 -200 -596q-8 -23 -26 -33q-11 -5 -22 -5q-7 0 -13 1q-15 5 -23 19q-4 7 -4 17zM578 1672q0 8 22 27 l247 208q13 11 24 11q10 0 23 -12q7 -7 7 -15q0 -11 -13 -21l-273 -191q-17 -14 -27 -14q-4 0 -7 4q-3 2 -3 3z" />
<glyph unicode="&#xc2;" horiz-adv-x="1405" d="M70 45q0 10 5 23q93 268 213 635q117 358 151 456q68 194 111 277q60 114 129 114t128 -114q43 -83 110 -277q35 -99 151 -456q120 -367 212 -635q5 -13 5 -22q0 -10 -5 -18q-7 -14 -23 -19q-6 -1 -13 -1q-10 0 -21 5q-19 10 -26 33q-45 130 -137 408h-656q-25 0 -39 13 q-10 10 -10 25t10 25q14 13 39 13h631q-24 71 -37 112q-121 368 -144 439q-66 191 -106 280q-42 94 -69 94q-28 0 -70 -94q-40 -89 -106 -280q-24 -70 -145 -439q-110 -336 -200 -596q-8 -23 -26 -33q-11 -5 -22 -5q-7 0 -13 1q-15 5 -23 19q-4 7 -4 17zM384 1671q0 8 22 27 l247 208q9 8 17 10q5 2 9 2q11 0 24 -11l247 -208q22 -19 22 -27q0 -1 -3 -3q-3 -4 -7 -4q-10 0 -27 14l-256 180l-258 -181q-17 -14 -27 -14q-4 0 -7 4q-3 2 -3 3z" />
<glyph unicode="&#xc3;" horiz-adv-x="1405" d="M70 45q0 10 5 23q93 268 213 635q117 358 151 456q68 194 111 277q60 114 129 114t128 -114q43 -83 110 -277q35 -99 151 -456q120 -367 212 -635q5 -13 5 -22q0 -10 -5 -18q-7 -14 -23 -19q-6 -1 -13 -1q-10 0 -21 5q-19 10 -26 33q-45 130 -137 408h-656q-25 0 -39 13 q-10 10 -10 25t10 25q14 13 39 13h631q-24 71 -37 112q-121 368 -144 439q-66 191 -106 280q-42 94 -69 94q-28 0 -70 -94q-40 -89 -106 -280q-24 -70 -145 -439q-110 -336 -200 -596q-8 -23 -26 -33q-11 -5 -22 -5q-7 0 -13 1q-15 5 -23 19q-4 7 -4 17zM384 1739q0 11 5 17 q7 7 9 7q5 0 16 -14q31 -42 73 -52q11 -3 23 -3q57 0 164 56q106 54 156 60q9 1 18 1q67 0 114 -62q10 -14 10 -29q0 -11 -5 -17q-6 -6 -9 -6q-5 0 -16 14q-28 37 -65 47q-10 3 -23 3q-55 0 -171 -60q-103 -52 -157 -56q-7 -1 -13 -1q-69 0 -119 67q-10 14 -10 28z" />
<glyph unicode="&#xc4;" horiz-adv-x="1405" d="M70 45q0 10 5 23q93 268 213 635q117 358 151 456q68 194 111 277q60 114 129 114t128 -114q43 -83 110 -277q35 -99 151 -456q120 -367 212 -635q5 -13 5 -22q0 -10 -5 -18q-7 -14 -23 -19q-6 -1 -13 -1q-10 0 -21 5q-19 10 -26 33q-45 130 -137 408h-656q-25 0 -39 13 q-10 10 -10 25t10 25q14 13 39 13h631q-24 71 -37 112q-121 368 -144 439q-66 191 -106 280q-42 94 -69 94q-28 0 -70 -94q-40 -89 -106 -280q-24 -70 -145 -439q-110 -336 -200 -596q-8 -23 -26 -33q-11 -5 -22 -5q-7 0 -13 1q-15 5 -23 19q-4 7 -4 17zM427 1782 q0 32 22 54t54 22t54 -22t22 -54q0 -31 -22 -53.5t-54 -22.5t-54 22.5t-22 53.5zM777 1782q0 32 22 54t54 22t54 -22t22 -54q0 -31 -22 -53.5t-54 -22.5t-54 22.5t-22 53.5z" />
<glyph unicode="&#xc5;" horiz-adv-x="1405" d="M70 45q0 10 5 23q93 268 213 635q117 358 151 456q68 194 111 277q60 114 129 114t128 -114q43 -83 110 -277q35 -99 151 -456q120 -367 212 -635q5 -13 5 -22q0 -10 -5 -18q-7 -14 -23 -19q-6 -1 -13 -1q-10 0 -21 5q-19 10 -26 33q-45 130 -137 408h-656q-25 0 -39 13 q-10 10 -10 25t10 25q14 13 39 13h631q-24 71 -37 112q-121 368 -144 439q-66 191 -106 280q-42 94 -69 94q-28 0 -70 -94q-40 -89 -106 -280q-24 -70 -145 -439q-110 -336 -200 -596q-8 -23 -26 -33q-11 -5 -22 -5q-7 0 -13 1q-15 5 -23 19q-4 7 -4 17zM520 1854 q0 66 46 112t112 46t112 -46t46 -112q0 -64 -46 -111t-112 -47t-112 47t-46 111zM566 1854q0 -46 33 -79t79 -33t79.5 33t33.5 79t-33.5 79.5t-79.5 33.5t-79 -33.5t-33 -79.5z" />
<glyph unicode="&#xc6;" horiz-adv-x="1816" d="M70 45q0 10 5 23q93 268 213 635q117 358 151 456q68 194 111 277q60 114 129 114t128 -113q37 -73 130 -331q28 256 98 334q85 95 250 95h440q25 0 39 -13q10 -10 10 -25t-10 -25q-14 -13 -39 -13h-444q-119 0 -178 -65q-72 -81 -72 -308v-270h694q25 0 39 -13 q11 -11 11 -25q0 -15 -11 -25q-14 -13 -39 -13h-674v-5h-20v-263q0 -53 2 -91q11 -149 70 -217q59 -65 178 -65h444q25 0 39 -13q10 -10 10 -25t-10 -25q-14 -13 -39 -13h-444q-161 0 -246 96q-92 101 -92 353v263h-357q-25 0 -39 13q-10 10 -10 25t10 25q14 13 39 13h357 q-73 221 -89 270q-66 191 -106 280q-42 94 -69 94q-28 0 -70 -94q-40 -89 -106 -280q-24 -70 -145 -439q-110 -336 -200 -596q-8 -23 -26 -33q-11 -5 -22 -5q-7 0 -13 1q-15 5 -23 19q-4 7 -4 17z" />
<glyph unicode="&#xc7;" horiz-adv-x="1191" d="M90 779q0 331 87 514q121 257 424 257h18q467 -7 482 -410v-9q0 -20 -9 -32q-11 -13 -28 -14h-5q-14 0 -26 10q-16 12 -18 36q-18 342 -413 343q-145 0 -238 -69q-187 -145 -187 -626t185 -625q91 -71 239 -71h18q377 2 396 344q2 24 18 36q12 10 26 10h5q17 -1 28 -14 q9 -12 9 -32v-9q-15 -396 -468 -410l-54 -51l-40 -51q186 30 207 -69v-11q1 -8 1 -14q0 -67 -56 -102q-53 -32 -107 -32q-14 0 -29 3q-70 11 -105 43q-6 9 -6 14q4 25 35 25q18 -8 48 -19q153 -45 170 78q-14 44 -62 59q-42 0 -105 -4q-22 7 -22 23q43 70 72 108 q-287 9 -404 257q-86 181 -86 514z" />
<glyph unicode="&#xc8;" horiz-adv-x="1082" d="M110 474v614q0 55 3 95q11 174 89 259q85 95 250 95h440q25 0 39 -13q10 -10 10 -25t-10 -25q-14 -13 -39 -13h-444q-119 0 -178 -65q-72 -81 -72 -308v-270h694q25 0 39 -13q11 -11 11 -25q0 -15 -11 -25q-14 -13 -39 -13h-694v-268q0 -53 2 -91q11 -149 70 -217 q59 -65 178 -65h444q25 0 39 -13q10 -10 10 -25t-10 -25q-14 -13 -39 -13h-444q-161 0 -246 96q-92 101 -92 353zM302 1891q0 8 7 15q13 12 23 12q11 0 24 -11l247 -208q22 -19 22 -27q0 -1 -3 -3q-3 -4 -7 -4q-10 0 -27 14l-273 191q-13 10 -13 21z" />
<glyph unicode="&#xc9;" horiz-adv-x="1082" d="M110 474v614q0 55 3 95q11 174 89 259q85 95 250 95h440q25 0 39 -13q10 -10 10 -25t-10 -25q-14 -13 -39 -13h-444q-119 0 -178 -65q-72 -81 -72 -308v-270h694q25 0 39 -13q11 -11 11 -25q0 -15 -11 -25q-14 -13 -39 -13h-694v-268q0 -53 2 -91q11 -149 70 -217 q59 -65 178 -65h444q25 0 39 -13q10 -10 10 -25t-10 -25q-14 -13 -39 -13h-444q-161 0 -246 96q-92 101 -92 353zM427 1672q0 8 22 27l247 208q13 11 24 11q10 0 23 -12q7 -7 7 -15q0 -11 -13 -21l-273 -191q-17 -14 -27 -14q-4 0 -7 4q-3 2 -3 3z" />
<glyph unicode="&#xca;" horiz-adv-x="1082" d="M110 474v614q0 55 3 95q11 174 89 259q85 95 250 95h440q25 0 39 -13q10 -10 10 -25t-10 -25q-14 -13 -39 -13h-444q-119 0 -178 -65q-72 -81 -72 -308v-270h694q25 0 39 -13q11 -11 11 -25q0 -15 -11 -25q-14 -13 -39 -13h-694v-268q0 -53 2 -91q11 -149 70 -217 q59 -65 178 -65h444q25 0 39 -13q10 -10 10 -25t-10 -25q-14 -13 -39 -13h-444q-161 0 -246 96q-92 101 -92 353zM232 1671q0 8 22 27l247 208q9 8 17 10q5 2 9 2q11 0 24 -11l247 -208q22 -19 22 -27q0 -1 -3 -3q-3 -4 -7 -4q-10 0 -27 14l-256 180l-258 -181 q-17 -14 -27 -14q-4 0 -7 4q-3 2 -3 3z" />
<glyph unicode="&#xcb;" horiz-adv-x="1082" d="M110 474v614q0 55 3 95q11 174 89 259q85 95 250 95h440q25 0 39 -13q10 -10 10 -25t-10 -25q-14 -13 -39 -13h-444q-119 0 -178 -65q-72 -81 -72 -308v-270h694q25 0 39 -13q11 -11 11 -25q0 -15 -11 -25q-14 -13 -39 -13h-694v-268q0 -53 2 -91q11 -149 70 -217 q59 -65 178 -65h444q25 0 39 -13q10 -10 10 -25t-10 -25q-14 -13 -39 -13h-444q-161 0 -246 96q-92 101 -92 353zM275 1782q0 32 22 54t54 22t54 -22t22 -54q0 -31 -22 -53.5t-54 -22.5t-54 22.5t-22 53.5zM625 1782q0 32 22 54t54 22t54 -22t22 -54q0 -31 -22 -53.5 t-54 -22.5t-54 22.5t-22 53.5z" />
<glyph unicode="&#xcc;" horiz-adv-x="368" d="M-65 1891q0 8 7 15q13 12 23 12q11 0 24 -11l247 -208q22 -19 22 -27q0 -1 -3 -3q-3 -4 -7 -4q-10 0 -27 14l-273 191q-13 10 -13 21zM115 65v1428q0 28 15 44q12 12 29 12t29 -12q15 -16 15 -45v-1426q0 -29 -15 -45q-12 -13 -29 -13t-29 13q-15 16 -15 44z" />
<glyph unicode="&#xcd;" horiz-adv-x="368" d="M60 1672q0 8 22 27l247 208q13 11 24 11q10 0 23 -12q7 -7 7 -15q0 -11 -13 -21l-273 -191q-17 -14 -27 -14q-4 0 -7 4q-3 2 -3 3zM115 65v1428q0 28 15 44q12 12 29 12t29 -12q15 -16 15 -45v-1426q0 -29 -15 -45q-12 -13 -29 -13t-29 13q-15 16 -15 44z" />
<glyph unicode="&#xce;" horiz-adv-x="368" d="M-135 1671q0 8 22 27l247 208q9 8 17 10q5 2 9 2q11 0 24 -11l247 -208q22 -19 22 -27q0 -1 -3 -3q-3 -4 -7 -4q-10 0 -27 14l-256 180l-258 -181q-17 -14 -27 -14q-4 0 -7 4q-3 2 -3 3zM115 65v1428q0 28 15 44q12 12 29 12t29 -12q15 -16 15 -45v-1426q0 -29 -15 -45 q-12 -13 -29 -13t-29 13q-15 16 -15 44z" />
<glyph unicode="&#xcf;" horiz-adv-x="368" d="M-92 1782q0 32 22 54t54 22t54 -22t22 -54q0 -31 -22 -53.5t-54 -22.5t-54 22.5t-22 53.5zM115 65v1428q0 28 15 44q12 12 29 12t29 -12q15 -16 15 -45v-1426q0 -29 -15 -45q-12 -13 -29 -13t-29 13q-15 16 -15 44zM258 1782q0 32 22 54t54 22t54 -22t22 -54 q0 -31 -22 -53.5t-54 -22.5t-54 22.5t-22 53.5z" />
<glyph unicode="&#xd0;" horiz-adv-x="1371" d="M50 779q0 9 7 16q9 9 27 9h127v264q0 273 134 391q101 91 273 91q133 0 250 -56q179 -85 289 -277q99 -172 119 -377q5 -53 5 -105q0 -207 -89 -376q-118 -225 -359 -302q-104 -34 -210 -34h-178q-24 0 -37 12q-10 10 -10 23q0 14 10 24q13 12 37 12l149 -1 q258 1 414 154q186 181 186 480q0 51 -5 105q-19 184 -103 338q-99 182 -259 258q-98 46 -209 46q-135 0 -211 -66q-108 -97 -108 -340v-264h495q18 0 27 -9q7 -7 7 -16q0 -10 -7 -17q-9 -8 -27 -8h-495v-684q0 -31 -16 -48q-11 -14 -28 -14t-28 14q-16 17 -16 48v684h-127 q-18 0 -27 8q-7 7 -7 17z" />
<glyph unicode="&#xd1;" horiz-adv-x="1221" d="M110 67v961q0 127 6 222q5 92 16 153q24 139 96 148q4 1 8 1q31 0 60 -24q21 -19 44 -53q39 -57 87 -168q70 -158 211.5 -525.5t165.5 -432.5q34 -93 61 -149q30 -63 53 -63q25 5 36 78q13 85 17 213q2 58 2 119v948q0 28 14 44q12 12 30 12q17 0 29 -12q15 -16 15 -45 v-947q0 -63 -2 -121q-6 -157 -24 -252q-26 -140 -93 -151q-7 -1 -15 -1q-53 0 -104 78q-46 72 -104 227q-24 66 -159 414.5t-197 499.5q-28 67 -57 124q-35 70 -55 70q-28 0 -39 -85q-14 -116 -14 -322v-960q0 -29 -15 -45q-12 -13 -29 -13t-29 13q-15 16 -15 44zM292 1739 q0 11 5 17q7 7 9 7q5 0 16 -14q31 -42 73 -52q11 -3 23 -3q57 0 164 56q106 54 156 60q9 1 18 1q67 0 114 -62q10 -14 10 -29q0 -11 -5 -17q-6 -6 -9 -6q-5 0 -16 14q-28 37 -65 47q-10 3 -23 3q-55 0 -171 -60q-103 -52 -157 -56q-7 -1 -13 -1q-69 0 -119 67q-10 14 -10 28 z" />
<glyph unicode="&#xd2;" horiz-adv-x="1270" d="M90 781q0 331 87 514q122 257 427 257h12q305 0 427 -257q87 -183 87 -514q0 -333 -87 -514q-121 -257 -427 -257h-12q-306 0 -427 257q-87 181 -87 514zM178 781q0 -481 186 -625q93 -71 240 -71h12q147 0 240 71q186 144 186 625t-189 626q-92 69 -237 69h-12 q-145 0 -237 -69q-189 -145 -189 -626zM386 1891q0 8 7 15q13 12 23 12q11 0 24 -11l247 -208q22 -19 22 -27q0 -1 -3 -3q-3 -4 -7 -4q-10 0 -27 14l-273 191q-13 10 -13 21z" />
<glyph unicode="&#xd3;" horiz-adv-x="1270" d="M90 781q0 331 87 514q122 257 427 257h12q305 0 427 -257q87 -183 87 -514q0 -333 -87 -514q-121 -257 -427 -257h-12q-306 0 -427 257q-87 181 -87 514zM178 781q0 -481 186 -625q93 -71 240 -71h12q147 0 240 71q186 144 186 625t-189 626q-92 69 -237 69h-12 q-145 0 -237 -69q-189 -145 -189 -626zM511 1672q0 8 22 27l247 208q13 11 24 11q10 0 23 -12q7 -7 7 -15q0 -11 -13 -21l-273 -191q-17 -14 -27 -14q-4 0 -7 4q-3 2 -3 3z" />
<glyph unicode="&#xd4;" horiz-adv-x="1270" d="M90 781q0 331 87 514q122 257 427 257h12q305 0 427 -257q87 -183 87 -514q0 -333 -87 -514q-121 -257 -427 -257h-12q-306 0 -427 257q-87 181 -87 514zM178 781q0 -481 186 -625q93 -71 240 -71h12q147 0 240 71q186 144 186 625t-189 626q-92 69 -237 69h-12 q-145 0 -237 -69q-189 -145 -189 -626zM316 1671q0 8 22 27l247 208q9 8 17 10q5 2 9 2q11 0 24 -11l247 -208q22 -19 22 -27q0 -1 -3 -3q-3 -4 -7 -4q-10 0 -27 14l-256 180l-258 -181q-17 -14 -27 -14q-4 0 -7 4q-3 2 -3 3z" />
<glyph unicode="&#xd5;" horiz-adv-x="1270" d="M90 781q0 331 87 514q122 257 427 257h12q305 0 427 -257q87 -183 87 -514q0 -333 -87 -514q-121 -257 -427 -257h-12q-306 0 -427 257q-87 181 -87 514zM178 781q0 -481 186 -625q93 -71 240 -71h12q147 0 240 71q186 144 186 625t-189 626q-92 69 -237 69h-12 q-145 0 -237 -69q-189 -145 -189 -626zM316 1739q0 11 5 17q7 7 9 7q5 0 16 -14q31 -42 73 -52q11 -3 23 -3q57 0 164 56q106 54 156 60q9 1 18 1q67 0 114 -62q10 -14 10 -29q0 -11 -5 -17q-6 -6 -9 -6q-5 0 -16 14q-28 37 -65 47q-10 3 -23 3q-55 0 -171 -60 q-103 -52 -157 -56q-7 -1 -13 -1q-69 0 -119 67q-10 14 -10 28z" />
<glyph unicode="&#xd6;" horiz-adv-x="1270" d="M90 781q0 331 87 514q122 257 427 257h12q305 0 427 -257q87 -183 87 -514q0 -333 -87 -514q-121 -257 -427 -257h-12q-306 0 -427 257q-87 181 -87 514zM178 781q0 -481 186 -625q93 -71 240 -71h12q147 0 240 71q186 144 186 625t-189 626q-92 69 -237 69h-12 q-145 0 -237 -69q-189 -145 -189 -626zM359 1782q0 32 22 54t54 22t54 -22t22 -54q0 -31 -22 -53.5t-54 -22.5t-54 22.5t-22 53.5zM709 1782q0 32 22 54t54 22t54 -22t22 -54q0 -31 -22 -53.5t-54 -22.5t-54 22.5t-22 53.5z" />
<glyph unicode="&#xd7;" horiz-adv-x="820" d="M111 463v3q0 13 13 25l250 251l-250 251q-13 12 -13 25v3q0 8 6 14t14 6h3q12 0 25 -14l251 -249l251 250q12 13 24 13h3q8 0 14 -7q7 -6 7 -14v-2q-1 -13 -13 -26l-251 -250l251 -250q12 -13 13 -27q0 -9 -7 -16t-15 -7q-13 1 -26 14l-251 250l-252 -250 q-13 -13 -25 -14q-9 0 -16 8q-6 5 -6 13z" />
<glyph unicode="&#xd8;" horiz-adv-x="1220" d="M90 781q0 331 87 514q122 257 427 257h12q63 0 141 -15q16 76 29 130q5 20 19 20q6 0 15 -3q26 -7 26 -24q0 -5 -1 -12l-30 -129q155 -70 228 -224q87 -183 87 -514q0 -333 -87 -514q-121 -257 -427 -257h-12q-56 0 -128 13l-42 -188q-5 -20 -19 -20q-6 0 -15 3 q-26 7 -26 23q0 4 1 9q18 80 43 188q-166 68 -241 229q-87 181 -87 514zM178 781q0 -481 186 -625q19 -15 71 -42q69 304 143 635q56 248 162 712q-71 15 -124 15h-12q-145 0 -237 -69q-189 -145 -189 -626zM493 95q66 -10 111 -10h12q147 0 240 71q186 144 186 625 t-189 626q-12 9 -54 37z" />
<glyph unicode="&#xd9;" horiz-adv-x="1298" d="M110 781v714q0 28 14 44q12 12 29 12q18 0 30 -12q14 -16 14 -45v-712q1 -482 187 -625q93 -71 240 -71q146 0 239 71q186 143 187 625v713q0 28 15 44q12 12 29 12t29 -12q15 -16 15 -45l-1 -713q0 -333 -86 -514q-122 -257 -427 -257q-306 0 -428 257q-86 181 -86 514z M400 1891q0 8 7 15q13 12 23 12q11 0 24 -11l247 -208q22 -19 22 -27q0 -1 -3 -3q-3 -4 -7 -4q-10 0 -27 14l-273 191q-13 10 -13 21z" />
<glyph unicode="&#xda;" horiz-adv-x="1298" d="M110 781v714q0 28 14 44q12 12 29 12q18 0 30 -12q14 -16 14 -45v-712q1 -482 187 -625q93 -71 240 -71q146 0 239 71q186 143 187 625v713q0 28 15 44q12 12 29 12t29 -12q15 -16 15 -45l-1 -713q0 -333 -86 -514q-122 -257 -427 -257q-306 0 -428 257q-86 181 -86 514z M525 1672q0 8 22 27l247 208q13 11 24 11q10 0 23 -12q7 -7 7 -15q0 -11 -13 -21l-273 -191q-17 -14 -27 -14q-4 0 -7 4q-3 2 -3 3z" />
<glyph unicode="&#xdb;" horiz-adv-x="1298" d="M110 781v714q0 28 14 44q12 12 29 12q18 0 30 -12q14 -16 14 -45v-712q1 -482 187 -625q93 -71 240 -71q146 0 239 71q186 143 187 625v713q0 28 15 44q12 12 29 12t29 -12q15 -16 15 -45l-1 -713q0 -333 -86 -514q-122 -257 -427 -257q-306 0 -428 257q-86 181 -86 514z M330 1671q0 8 22 27l247 208q9 8 17 10q5 2 9 2q11 0 24 -11l247 -208q22 -19 22 -27q0 -1 -3 -3q-3 -4 -7 -4q-10 0 -27 14l-256 180l-258 -181q-17 -14 -27 -14q-4 0 -7 4q-3 2 -3 3z" />
<glyph unicode="&#xdc;" horiz-adv-x="1298" d="M110 781v714q0 28 14 44q12 12 29 12q18 0 30 -12q14 -16 14 -45v-712q1 -482 187 -625q93 -71 240 -71q146 0 239 71q186 143 187 625v713q0 28 15 44q12 12 29 12t29 -12q15 -16 15 -45l-1 -713q0 -333 -86 -514q-122 -257 -427 -257q-306 0 -428 257q-86 181 -86 514z M373 1782q0 32 22 54t54 22t54 -22t22 -54q0 -31 -22 -53.5t-54 -22.5t-54 22.5t-22 53.5zM723 1782q0 32 22 54t54 22t54 -22t22 -54q0 -31 -22 -53.5t-54 -22.5t-54 22.5t-22 53.5z" />
<glyph unicode="&#xdd;" horiz-adv-x="1411" d="M70 1520q0 5 1 8q3 13 17 21q11 6 22 6q5 0 11 -1q22 -6 36 -27q60 -87 182 -273q118 -180 182 -272q65 -92 105 -130q34 -33 56 -33t56 33q39 38 104 130q64 92 181 272q122 186 181 273q14 21 36 27q6 1 11 1q11 0 22 -6q14 -8 17 -21q1 -3 1 -8q0 -14 -12 -32 q-60 -87 -181 -273q-118 -180 -182 -272q-108 -156 -192 -194v-681q0 -29 -15 -45q-11 -13 -28 -13t-30 13q-14 16 -14 44v683q-45 21 -76 51q-45 43 -115 142q-63 92 -181 272q-122 186 -183 273q-12 18 -12 32zM581 1672q0 8 22 27l247 208q13 11 24 11q10 0 23 -12 q7 -7 7 -15q0 -11 -13 -21l-273 -191q-17 -14 -27 -14q-4 0 -7 4q-3 2 -3 3z" />
<glyph unicode="&#xde;" horiz-adv-x="1082" d="M115 -139v1632q0 28 15 44q12 12 29 12t29 -12q15 -16 15 -45v-281q141 126 315 126q146 0 259 -62q116 -62 178 -179q52 -96 52 -206v-8q-2 -116 -61 -211q-122 -198 -396 -200h-201q-24 0 -36 13q-11 10 -11 25q0 16 10 26q13 12 37 12h200q222 1 320 159q49 80 50 179 v4q0 94 -43 176q-105 196 -358 196q-152 0 -227 -81q-88 -99 -88 -387v-931q0 -29 -15 -45q-12 -13 -29 -13t-29 13q-15 16 -15 44z" />
<glyph unicode="&#xdf;" horiz-adv-x="1201" d="M110 70v905q0 266 45 383q74 192 297 192q154 0 243 -101q76 -84 79 -208v-15q0 -129 -105 -250q309 -83 398 -317q31 -83 31 -169q0 -53 -12 -109q-32 -147 -139 -245q-87 -79 -210 -104q-46 -9 -120 -9l-64 2q-83 7 -114 86q-27 146 109 192q34 2 34.5 -21t-25.5 -34 q-53 -39 -51.5 -92.5t76.5 -62.5h45q153 0 256 95q91 83 117 212q10 45 10 90q0 75 -27 146q-54 142 -191 215q-123 65 -292 66h-24q-29 0 -45 14q-11 10 -11 24t12 24q15 14 44 14h21q50 1 88 26q102 63 102 208v11q-3 102 -62 167q-64 69 -173 69q-97 0 -151 -45 q-103 -86 -103 -454v-905q0 -31 -16 -48q-11 -14 -28 -14t-28 14q-16 17 -16 48z" />
<glyph unicode="&#xe0;" horiz-adv-x="1083" d="M100 828q0 7 2 14q99 219 398 224h1q175 -2 277 -95q128 -119 135 -397v-509q0 -27 -14 -42q-11 -12 -27 -12t-28 12q-14 15 -14 42v302q0 84 -107 147q-100 57 -231 57q-159 0 -245 -97q-61 -70 -61 -155q0 -24 4 -49q13 -63 51 -110q3 -3 6 -5q82 -76 203.5 -49.5 t216.5 99.5q19 12 40 12h7q18 -2 28 -14q6 -6 6 -13q0 -3 -1 -8q-5 -18 -34 -37q-122 -97 -266 -115q-27 -4 -52 -4q-107 0 -188 63q-79 73 -97 170q-7 32 -7 63q0 106 78 195q110 126 311 126q184 0 288 -97q3 -4 50 -50v99q0 82 -28 173q-32 106 -84 154q-77 71 -218 73 q-201 -3 -316 -161q-6 -28 -22 -38q-11 -6 -23 -6q-4 0 -9 1q-16 3 -24 15q-6 9 -6 22zM278 1408q0 8 7 15q13 12 23 12q11 0 24 -11l247 -208q22 -19 22 -27q0 -1 -3 -3q-3 -4 -7 -4q-10 0 -27 14l-273 191q-13 10 -13 21z" />
<glyph unicode="&#xe1;" horiz-adv-x="1083" d="M100 828q0 7 2 14q99 219 398 224h1q175 -2 277 -95q128 -119 135 -397v-509q0 -27 -14 -42q-11 -12 -27 -12t-28 12q-14 15 -14 42v302q0 84 -107 147q-100 57 -231 57q-159 0 -245 -97q-61 -70 -61 -155q0 -24 4 -49q13 -63 51 -110q3 -3 6 -5q82 -76 203.5 -49.5 t216.5 99.5q19 12 40 12h7q18 -2 28 -14q6 -6 6 -13q0 -3 -1 -8q-5 -18 -34 -37q-122 -97 -266 -115q-27 -4 -52 -4q-107 0 -188 63q-79 73 -97 170q-7 32 -7 63q0 106 78 195q110 126 311 126q184 0 288 -97q3 -4 50 -50v99q0 82 -28 173q-32 106 -84 154q-77 71 -218 73 q-201 -3 -316 -161q-6 -28 -22 -38q-11 -6 -23 -6q-4 0 -9 1q-16 3 -24 15q-6 9 -6 22zM402 1189q0 8 22 27l247 208q13 11 24 11q10 0 23 -12q7 -7 7 -15q0 -11 -13 -21l-273 -191q-17 -14 -27 -14q-4 0 -7 4q-3 2 -3 3z" />
<glyph unicode="&#xe2;" horiz-adv-x="1083" d="M100 828q0 7 2 14q99 219 398 224h1q175 -2 277 -95q128 -119 135 -397v-509q0 -27 -14 -42q-11 -12 -27 -12t-28 12q-14 15 -14 42v302q0 84 -107 147q-100 57 -231 57q-159 0 -245 -97q-61 -70 -61 -155q0 -24 4 -49q13 -63 51 -110q3 -3 6 -5q82 -76 203.5 -49.5 t216.5 99.5q19 12 40 12h7q18 -2 28 -14q6 -6 6 -13q0 -3 -1 -8q-5 -18 -34 -37q-122 -97 -266 -115q-27 -4 -52 -4q-107 0 -188 63q-79 73 -97 170q-7 32 -7 63q0 106 78 195q110 126 311 126q184 0 288 -97q3 -4 50 -50v99q0 82 -28 173q-32 106 -84 154q-77 71 -218 73 q-201 -3 -316 -161q-6 -28 -22 -38q-11 -6 -23 -6q-4 0 -9 1q-16 3 -24 15q-6 9 -6 22zM208 1188q0 8 22 27l247 208q9 8 17 10q5 2 9 2q11 0 24 -11l247 -208q22 -19 22 -27q0 -1 -3 -3q-3 -4 -7 -4q-10 0 -27 14l-256 180l-258 -181q-17 -14 -27 -14q-4 0 -7 4q-3 2 -3 3z " />
<glyph unicode="&#xe3;" horiz-adv-x="1083" d="M100 828q0 7 2 14q99 219 398 224h1q175 -2 277 -95q128 -119 135 -397v-509q0 -27 -14 -42q-11 -12 -27 -12t-28 12q-14 15 -14 42v302q0 84 -107 147q-100 57 -231 57q-159 0 -245 -97q-61 -70 -61 -155q0 -24 4 -49q13 -63 51 -110q3 -3 6 -5q82 -76 203.5 -49.5 t216.5 99.5q19 12 40 12h7q18 -2 28 -14q6 -6 6 -13q0 -3 -1 -8q-5 -18 -34 -37q-122 -97 -266 -115q-27 -4 -52 -4q-107 0 -188 63q-79 73 -97 170q-7 32 -7 63q0 106 78 195q110 126 311 126q184 0 288 -97q3 -4 50 -50v99q0 82 -28 173q-32 106 -84 154q-77 71 -218 73 q-201 -3 -316 -161q-6 -28 -22 -38q-11 -6 -23 -6q-4 0 -9 1q-16 3 -24 15q-6 9 -6 22zM208 1256q0 11 5 17q7 7 9 7q5 0 16 -14q31 -42 73 -52q11 -3 23 -3q57 0 164 56q106 54 156 60q9 1 18 1q67 0 114 -62q10 -14 10 -29q0 -11 -5 -17q-6 -6 -9 -6q-5 0 -16 14 q-28 37 -65 47q-10 3 -23 3q-55 0 -171 -60q-103 -52 -157 -56q-7 -1 -13 -1q-69 0 -119 67q-10 14 -10 28z" />
<glyph unicode="&#xe4;" horiz-adv-x="1083" d="M100 828q0 7 2 14q99 219 398 224h1q175 -2 277 -95q128 -119 135 -397v-509q0 -27 -14 -42q-11 -12 -27 -12t-28 12q-14 15 -14 42v302q0 84 -107 147q-100 57 -231 57q-159 0 -245 -97q-61 -70 -61 -155q0 -24 4 -49q13 -63 51 -110q3 -3 6 -5q82 -76 203.5 -49.5 t216.5 99.5q19 12 40 12h7q18 -2 28 -14q6 -6 6 -13q0 -3 -1 -8q-5 -18 -34 -37q-122 -97 -266 -115q-27 -4 -52 -4q-107 0 -188 63q-79 73 -97 170q-7 32 -7 63q0 106 78 195q110 126 311 126q184 0 288 -97q3 -4 50 -50v99q0 82 -28 173q-32 106 -84 154q-77 71 -218 73 q-201 -3 -316 -161q-6 -28 -22 -38q-11 -6 -23 -6q-4 0 -9 1q-16 3 -24 15q-6 9 -6 22zM251 1299q0 32 22 54t54 22t54 -22t22 -54q0 -31 -22 -53.5t-54 -22.5t-54 22.5t-22 53.5zM601 1299q0 32 22 54t54 22t54 -22t22 -54q0 -31 -22 -53.5t-54 -22.5t-54 22.5t-22 53.5z " />
<glyph unicode="&#xe5;" horiz-adv-x="1083" d="M100 828q0 7 2 14q99 219 398 224h1q175 -2 277 -95q128 -119 135 -397v-509q0 -27 -14 -42q-11 -12 -27 -12t-28 12q-14 15 -14 42v302q0 84 -107 147q-100 57 -231 57q-159 0 -245 -97q-61 -70 -61 -155q0 -24 4 -49q13 -63 51 -110q3 -3 6 -5q82 -76 203.5 -49.5 t216.5 99.5q19 12 40 12h7q18 -2 28 -14q6 -6 6 -13q0 -3 -1 -8q-5 -18 -34 -37q-122 -97 -266 -115q-27 -4 -52 -4q-107 0 -188 63q-79 73 -97 170q-7 32 -7 63q0 106 78 195q110 126 311 126q184 0 288 -97q3 -4 50 -50v99q0 82 -28 173q-32 106 -84 154q-77 71 -218 73 q-201 -3 -316 -161q-6 -28 -22 -38q-11 -6 -23 -6q-4 0 -9 1q-16 3 -24 15q-6 9 -6 22zM344 1371q0 66 46 112t112 46t112 -46t46 -112q0 -64 -46 -111t-112 -47t-112 47t-46 111zM390 1371q0 -46 33 -79t79 -33t79.5 33t33.5 79t-33.5 79.5t-79.5 33.5t-79 -33.5t-33 -79.5 z" />
<glyph unicode="&#xe6;" horiz-adv-x="1580" d="M100 745q0 7 2 15q73 306 400 306q174 0 269 -85l26 -29q123 114 307 114q201 0 311 -125q78 -89 78 -195q0 -31 -7 -63q-22 -112 -116 -182q-104 -77 -266 -77h-215q-24 0 -37 12q-10 10 -10 24t10 24q13 12 37 12l215 -1q112 0 191 46q90 53 110 154q4 25 4 48 q0 85 -60 154q-86 98 -245 98q-148 0 -227 -74q-104 -96 -111 -348q7 -15 3 -12v-121q17 -201 109 -284q78 -73 223 -74h3q202 3 317 161q6 28 22 38q11 6 23 6q4 0 9 -1q16 -3 24 -15q6 -9 6 -22q0 -7 -2 -14q-99 -219 -399 -224h-3q-180 1 -283 96q-22 21 -56 68 q-28 -23 -40 -30q-121 -97 -265 -115q-27 -4 -52 -4q-107 0 -188 63q-79 73 -97 170q-7 32 -7 63q0 106 78 195q110 126 311 126q85 0 182 -30q15 172 71 280q-19 21 -27 29q-79 73 -226 73q-137 0 -215 -64q-74 -60 -103 -184q-6 -23 -22 -34q-10 -6 -22 -6q-4 0 -9 1 q-16 3 -25 15q-6 9 -6 22zM196 319q0 -24 4 -49q13 -63 51 -110q3 -3 6 -5q82 -76 203.5 -49.5t217.5 99.5q13 9 59 16q-52 139 -54 318q-92 32 -181 32q-159 0 -245 -97q-61 -70 -61 -155z" />
<glyph unicode="&#xe7;" horiz-adv-x="999" d="M90 538v1q0 306 133 430q103 95 282 97h3q300 -5 399 -224q2 -7 2 -14q0 -13 -6 -22q-8 -12 -24 -15q-5 -1 -9 -1q-12 0 -23 6q-16 10 -22 38q-115 158 -317 161h-1q-145 -1 -223 -74q-111 -104 -111 -382q0 -279 111 -383q78 -73 223 -74h1q202 3 317 161q6 28 22 38 q11 6 23 6q4 0 9 -1q16 -3 24 -15q6 -9 6 -22q0 -7 -2 -14q-92 -205 -360 -222l-104 -107q186 30 207 -69v-11q1 -8 1 -14q0 -67 -56 -102q-53 -32 -107 -32q-14 0 -29 3q-70 11 -105 43q-6 9 -6 14q4 25 35 25q18 -8 48 -19q153 -45 170 78q-14 44 -62 59q-42 0 -105 -4 q-22 7 -22 23q44 71 74 111q-166 7 -263 97q-133 124 -133 430z" />
<glyph unicode="&#xe8;" horiz-adv-x="1052" d="M90 539q0 306 133 431q104 96 288 96q201 0 311 -125q78 -89 78 -195q0 -31 -7 -63q-22 -112 -116 -182q-104 -77 -266 -77h-249q-24 0 -37 12q-10 10 -10 24t10 24q13 12 37 12l249 -1q112 0 191 46q90 53 110 154q4 25 4 48q0 85 -60 154q-86 98 -245 98 q-148 0 -227 -74q-112 -103 -112 -382q0 -280 113 -383q78 -73 223 -74h3q202 3 317 161q6 28 22 38q11 6 23 6q4 0 9 -1q16 -3 24 -15q6 -9 6 -22q0 -7 -2 -14q-99 -219 -399 -224h-3q-180 1 -283 96q-135 125 -135 432zM277 1408q0 8 7 15q13 12 23 12q11 0 24 -11 l247 -208q22 -19 22 -27q0 -1 -3 -3q-3 -4 -7 -4q-10 0 -27 14l-273 191q-13 10 -13 21z" />
<glyph unicode="&#xe9;" horiz-adv-x="1052" d="M90 539q0 306 133 431q104 96 288 96q201 0 311 -125q78 -89 78 -195q0 -31 -7 -63q-22 -112 -116 -182q-104 -77 -266 -77h-249q-24 0 -37 12q-10 10 -10 24t10 24q13 12 37 12l249 -1q112 0 191 46q90 53 110 154q4 25 4 48q0 85 -60 154q-86 98 -245 98 q-148 0 -227 -74q-112 -103 -112 -382q0 -280 113 -383q78 -73 223 -74h3q202 3 317 161q6 28 22 38q11 6 23 6q4 0 9 -1q16 -3 24 -15q6 -9 6 -22q0 -7 -2 -14q-99 -219 -399 -224h-3q-180 1 -283 96q-135 125 -135 432zM402 1189q0 8 22 27l247 208q13 11 24 11 q10 0 23 -12q7 -7 7 -15q0 -11 -13 -21l-273 -191q-17 -14 -27 -14q-4 0 -7 4q-3 2 -3 3z" />
<glyph unicode="&#xea;" horiz-adv-x="1052" d="M90 539q0 306 133 431q104 96 288 96q201 0 311 -125q78 -89 78 -195q0 -31 -7 -63q-22 -112 -116 -182q-104 -77 -266 -77h-249q-24 0 -37 12q-10 10 -10 24t10 24q13 12 37 12l249 -1q112 0 191 46q90 53 110 154q4 25 4 48q0 85 -60 154q-86 98 -245 98 q-148 0 -227 -74q-112 -103 -112 -382q0 -280 113 -383q78 -73 223 -74h3q202 3 317 161q6 28 22 38q11 6 23 6q4 0 9 -1q16 -3 24 -15q6 -9 6 -22q0 -7 -2 -14q-99 -219 -399 -224h-3q-180 1 -283 96q-135 125 -135 432zM207 1188q0 8 22 27l247 208q9 8 17 10q5 2 9 2 q11 0 24 -11l247 -208q22 -19 22 -27q0 -1 -3 -3q-3 -4 -7 -4q-10 0 -27 14l-256 180l-258 -181q-17 -14 -27 -14q-4 0 -7 4q-3 2 -3 3z" />
<glyph unicode="&#xeb;" horiz-adv-x="1052" d="M90 539q0 306 133 431q104 96 288 96q201 0 311 -125q78 -89 78 -195q0 -31 -7 -63q-22 -112 -116 -182q-104 -77 -266 -77h-249q-24 0 -37 12q-10 10 -10 24t10 24q13 12 37 12l249 -1q112 0 191 46q90 53 110 154q4 25 4 48q0 85 -60 154q-86 98 -245 98 q-148 0 -227 -74q-112 -103 -112 -382q0 -280 113 -383q78 -73 223 -74h3q202 3 317 161q6 28 22 38q11 6 23 6q4 0 9 -1q16 -3 24 -15q6 -9 6 -22q0 -7 -2 -14q-99 -219 -399 -224h-3q-180 1 -283 96q-135 125 -135 432zM250 1299q0 32 22 54t54 22t54 -22t22 -54 q0 -31 -22 -53.5t-54 -22.5t-54 22.5t-22 53.5zM600 1299q0 32 22 54t54 22t54 -22t22 -54q0 -31 -22 -53.5t-54 -22.5t-54 22.5t-22 53.5z" />
<glyph unicode="&#xec;" horiz-adv-x="541" d="M-18 1408q0 8 7 15q13 12 23 12q11 0 24 -11l247 -208q22 -19 22 -27q0 -1 -3 -3q-3 -4 -7 -4q-10 0 -27 14l-273 191q-13 10 -13 21zM30 1016q0 13 11 23q13 12 37 12h61q148 -1 191 -36q50 -42 51 -190v-760q0 -27 -14 -42q-12 -12 -28 -12t-27 12q-14 15 -14 42v760 q0 100 -29 127q-28 27 -130 28h-61q-24 0 -37 12q-11 10 -11 24z" />
<glyph unicode="&#xed;" horiz-adv-x="541" d="M30 1016q0 13 11 23q13 12 37 12h61q148 -1 191 -36q50 -42 51 -190v-760q0 -27 -14 -42q-12 -12 -28 -12t-27 12q-14 15 -14 42v760q0 100 -29 127q-28 27 -130 28h-61q-24 0 -37 12q-11 10 -11 24zM106 1189q0 8 22 27l247 208q13 11 24 11q10 0 23 -12q7 -7 7 -15 q0 -11 -13 -21l-273 -191q-17 -14 -27 -14q-4 0 -7 4q-3 2 -3 3z" />
<glyph unicode="&#xee;" horiz-adv-x="541" d="M-88 1188q0 8 22 27l247 208q9 8 17 10q5 2 9 2q11 0 24 -11l247 -208q22 -19 22 -27q0 -1 -3 -3q-3 -4 -7 -4q-10 0 -27 14l-256 180l-258 -181q-17 -14 -27 -14q-4 0 -7 4q-3 2 -3 3zM31 1016q0 13 11 23q13 12 37 12h61q148 -1 191 -36q50 -42 51 -190v-760 q0 -27 -14 -42q-12 -12 -28 -12t-27 12q-14 15 -14 42v760q0 100 -29 127q-28 27 -130 28h-61q-24 0 -37 12q-11 10 -11 24z" />
<glyph unicode="&#xef;" horiz-adv-x="541" d="M-45 1299q0 32 22 54t54 22t54 -22t22 -54q0 -31 -22 -53.5t-54 -22.5t-54 22.5t-22 53.5zM31 1016q0 13 11 23q13 12 37 12h61q148 -1 191 -36q50 -42 51 -190v-760q0 -27 -14 -42q-12 -12 -28 -12t-27 12q-14 15 -14 42v760q0 100 -29 127q-28 27 -130 28h-61 q-24 0 -37 12q-11 10 -11 24zM305 1299q0 32 22 54t54 22t54 -22t22 -54q0 -31 -22 -53.5t-54 -22.5t-54 22.5t-22 53.5z" />
<glyph unicode="&#xf1;" horiz-adv-x="1085" d="M110 64v475q0 306 135 431q104 95 286 95q178 0 274 -92q119 -115 119 -431l1 -478q0 -27 -14 -42q-12 -12 -28 -12t-27 12q-14 15 -14 42v478q-1 290 -99 384q-71 68 -212 68q-147 0 -226 -73q-112 -104 -112 -382v-475q0 -27 -14 -42q-12 -12 -28 -12t-27 12 q-14 15 -14 42zM224 1256q0 11 5 17q7 7 9 7q5 0 16 -14q31 -42 73 -52q11 -3 23 -3q57 0 164 56q106 54 156 60q9 1 18 1q67 0 114 -62q10 -14 10 -29q0 -11 -5 -17q-6 -6 -9 -6q-5 0 -16 14q-28 37 -65 47q-10 3 -23 3q-55 0 -171 -60q-103 -52 -157 -56q-7 -1 -13 -1 q-69 0 -119 67q-10 14 -10 28z" />
<glyph unicode="&#xf2;" horiz-adv-x="1072" d="M90 538q0 307 135 432q104 95 286 95t286 -95q135 -125 135 -432t-133 -431q-104 -97 -288 -97t-288 97q-133 124 -133 431zM173 538q0 -279 111 -383q79 -74 227 -74t227 74q111 104 111 383t-112 383q-80 73 -226 73t-226 -73q-112 -104 -112 -383zM287 1408q0 8 7 15 q13 12 23 12q11 0 24 -11l247 -208q22 -19 22 -27q0 -1 -3 -3q-3 -4 -7 -4q-10 0 -27 14l-273 191q-13 10 -13 21z" />
<glyph unicode="&#xf3;" horiz-adv-x="1072" d="M90 538q0 307 135 432q104 95 286 95t286 -95q135 -125 135 -432t-133 -431q-104 -97 -288 -97t-288 97q-133 124 -133 431zM173 538q0 -279 111 -383q79 -74 227 -74t227 74q111 104 111 383t-112 383q-80 73 -226 73t-226 -73q-112 -104 -112 -383zM412 1189q0 8 22 27 l247 208q13 11 24 11q10 0 23 -12q7 -7 7 -15q0 -11 -13 -21l-273 -191q-17 -14 -27 -14q-4 0 -7 4q-3 2 -3 3z" />
<glyph unicode="&#xf4;" horiz-adv-x="1072" d="M90 538q0 307 135 432q104 95 286 95t286 -95q135 -125 135 -432t-133 -431q-104 -97 -288 -97t-288 97q-133 124 -133 431zM173 538q0 -279 111 -383q79 -74 227 -74t227 74q111 104 111 383t-112 383q-80 73 -226 73t-226 -73q-112 -104 -112 -383zM217 1188q0 8 22 27 l247 208q9 8 17 10q5 2 9 2q11 0 24 -11l247 -208q22 -19 22 -27q0 -1 -3 -3q-3 -4 -7 -4q-10 0 -27 14l-256 180l-258 -181q-17 -14 -27 -14q-4 0 -7 4q-3 2 -3 3z" />
<glyph unicode="&#xf5;" horiz-adv-x="1072" d="M90 538q0 307 135 432q104 95 286 95t286 -95q135 -125 135 -432t-133 -431q-104 -97 -288 -97t-288 97q-133 124 -133 431zM173 538q0 -279 111 -383q79 -74 227 -74t227 74q111 104 111 383t-112 383q-80 73 -226 73t-226 -73q-112 -104 -112 -383zM217 1256q0 11 5 17 q7 7 9 7q5 0 16 -14q31 -42 73 -52q11 -3 23 -3q57 0 164 56q106 54 156 60q9 1 18 1q67 0 114 -62q10 -14 10 -29q0 -11 -5 -17q-6 -6 -9 -6q-5 0 -16 14q-28 37 -65 47q-10 3 -23 3q-55 0 -171 -60q-103 -52 -157 -56q-7 -1 -13 -1q-69 0 -119 67q-10 14 -10 28z" />
<glyph unicode="&#xf6;" horiz-adv-x="1072" d="M90 538q0 307 135 432q104 95 286 95t286 -95q135 -125 135 -432t-133 -431q-104 -97 -288 -97t-288 97q-133 124 -133 431zM173 538q0 -279 111 -383q79 -74 227 -74t227 74q111 104 111 383t-112 383q-80 73 -226 73t-226 -73q-112 -104 -112 -383zM260 1299 q0 32 22 54t54 22t54 -22t22 -54q0 -31 -22 -53.5t-54 -22.5t-54 22.5t-22 53.5zM610 1299q0 32 22 54t54 22t54 -22t22 -54q0 -31 -22 -53.5t-54 -22.5t-54 22.5t-22 53.5z" />
<glyph unicode="&#xf7;" horiz-adv-x="1098" d="M110 737q0 9 7 16q9 9 27 9h760q18 0 27 -9q7 -7 7 -16q0 -10 -7 -17q-9 -8 -27 -8h-760q-18 0 -27 8q-7 7 -7 17zM448 410q0 32 22 54t54 22t54 -22t22 -54t-22 -54t-54 -22t-54 22t-22 54zM448 1093q0 32 22 54t54 22t54 -22t22 -54q0 -31 -22 -53.5t-54 -22.5 t-54 22.5t-22 53.5z" />
<glyph unicode="&#xf8;" horiz-adv-x="1022" d="M90 538q0 307 135 432q104 95 286 95q45 0 107 -9q35 129 69 252q4 14 19 14q7 0 16 -2q25 -6 25 -16q0 -3 -1 -8l-70 -255q77 -31 121 -71q135 -125 135 -432t-133 -431q-104 -97 -288 -97q-49 0 -114 10l-62 -226q-4 -15 -19 -15q-7 0 -16 2q-25 6 -25 15q0 2 1 6 q27 100 64 234q-75 32 -117 71q-133 124 -133 431zM173 538q0 -279 111 -383q21 -21 75 -49l120 440q43 159 121 442q-58 6 -89 6q-146 0 -226 -73q-112 -104 -112 -383zM415 89q60 -8 96 -8q148 0 227 74q111 104 111 383t-112 383q-24 22 -80 50z" />
<glyph unicode="&#xf9;" horiz-adv-x="1084" d="M110 543v468q0 28 14 43q11 11 27 11q17 0 28 -11q14 -15 14 -43v-468q0 -278 112 -382q79 -73 226 -73q141 0 212 68q98 94 99 384v471q0 28 13 43q11 11 28 11t28 -11q13 -15 13 -43v-471q0 -316 -119 -431q-96 -92 -274 -92q-182 0 -286 95q-135 125 -135 431z M293 1408q0 8 7 15q13 12 23 12q11 0 24 -11l247 -208q22 -19 22 -27q0 -1 -3 -3q-3 -4 -7 -4q-10 0 -27 14l-273 191q-13 10 -13 21z" />
<glyph unicode="&#xfa;" horiz-adv-x="1084" d="M110 543v468q0 28 14 43q11 11 27 11q17 0 28 -11q14 -15 14 -43v-468q0 -278 112 -382q79 -73 226 -73q141 0 212 68q98 94 99 384v471q0 28 13 43q11 11 28 11t28 -11q13 -15 13 -43v-471q0 -316 -119 -431q-96 -92 -274 -92q-182 0 -286 95q-135 125 -135 431z M418 1189q0 8 22 27l247 208q13 11 24 11q10 0 23 -12q7 -7 7 -15q0 -11 -13 -21l-273 -191q-17 -14 -27 -14q-4 0 -7 4q-3 2 -3 3z" />
<glyph unicode="&#xfb;" horiz-adv-x="1084" d="M110 543v468q0 28 14 43q11 11 27 11q17 0 28 -11q14 -15 14 -43v-468q0 -278 112 -382q79 -73 226 -73q141 0 212 68q98 94 99 384v471q0 28 13 43q11 11 28 11t28 -11q13 -15 13 -43v-471q0 -316 -119 -431q-96 -92 -274 -92q-182 0 -286 95q-135 125 -135 431z M223 1188q0 8 22 27l247 208q9 8 17 10q5 2 9 2q11 0 24 -11l247 -208q22 -19 22 -27q0 -1 -3 -3q-3 -4 -7 -4q-10 0 -27 14l-256 180l-258 -181q-17 -14 -27 -14q-4 0 -7 4q-3 2 -3 3z" />
<glyph unicode="&#xfc;" horiz-adv-x="1084" d="M110 543v468q0 28 14 43q11 11 27 11q17 0 28 -11q14 -15 14 -43v-468q0 -278 112 -382q79 -73 226 -73q141 0 212 68q98 94 99 384v471q0 28 13 43q11 11 28 11t28 -11q13 -15 13 -43v-471q0 -316 -119 -431q-96 -92 -274 -92q-182 0 -286 95q-135 125 -135 431z M266 1299q0 32 22 54t54 22t54 -22t22 -54q0 -31 -22 -53.5t-54 -22.5t-54 22.5t-22 53.5zM616 1299q0 32 22 54t54 22t54 -22t22 -54q0 -31 -22 -53.5t-54 -22.5t-54 22.5t-22 53.5z" />
<glyph unicode="&#xfd;" horiz-adv-x="1042" d="M40 -63q0 163 105 242q21 16 38 16q1 0 3 -1q16 -2 25 -15q6 -9 6 -19q0 -4 -1 -9q-4 -20 -27 -34q-66 -60 -66 -180q0 -136 120 -202q88 -47 218 -47q145 0 234 83q104 97 104 288v249q-140 -128 -293 -128h-10q-158 4 -259 97q-135 125 -135 431v303q0 28 14 43 q11 11 27 11q17 0 28 -11q13 -15 13 -43v-303q1 -278 113 -382q80 -75 191 -75q56 0 119 20q82 25 134 77q58 59 58 131v532q0 28 14 43q11 11 27 11q17 0 28 -11q14 -15 14 -43l-1 -228h1v-723q0 -227 -121 -341q-109 -102 -300 -102q-196 0 -303 72q-118 80 -118 248z M362 1189q0 8 22 27l247 208q13 11 24 11q10 0 23 -12q7 -7 7 -15q0 -11 -13 -21l-273 -191q-17 -14 -27 -14q-4 0 -7 4q-3 2 -3 3z" />
<glyph unicode="&#xfe;" horiz-adv-x="1042" d="M110 -366v1881q0 27 13 42q12 12 28 12t28 -12q13 -15 13 -43v-607q47 58 50 61q105 97 289 97t288 -96q133 -125 133 -431q0 -307 -135 -431q-8 -8 -17 -14q-101 -83 -269 -83q-145 0 -241 61q-28 18 -33 36q-1 5 -1 8q0 7 6 13q10 12 28 14h7q21 0 40 -13 q75 -48 194 -48q147 0 225 72q5 4 8 9q105 104 105 376q0 279 -111 382q-79 74 -227 74t-227 -74q-112 -103 -112 -382q1 -430 1 -785v-119q0 -27 -14 -42q-12 -12 -28 -12t-27 12q-14 15 -14 42z" />
<glyph unicode="&#xff;" horiz-adv-x="1042" d="M40 -63q0 163 105 242q21 16 38 16q1 0 3 -1q16 -2 25 -15q6 -9 6 -19q0 -4 -1 -9q-4 -20 -27 -34q-66 -60 -66 -180q0 -136 120 -202q88 -47 218 -47q145 0 234 83q104 97 104 288v249q-140 -128 -293 -128h-10q-158 4 -259 97q-135 125 -135 431v303q0 28 14 43 q11 11 27 11q17 0 28 -11q13 -15 13 -43v-303q1 -278 113 -382q80 -75 191 -75q56 0 119 20q82 25 134 77q58 59 58 131v532q0 28 14 43q11 11 27 11q17 0 28 -11q14 -15 14 -43l-1 -228h1v-723q0 -227 -121 -341q-109 -102 -300 -102q-196 0 -303 72q-118 80 -118 248z M210 1299q0 32 22 54t54 22t54 -22t22 -54q0 -31 -22 -53.5t-54 -22.5t-54 22.5t-22 53.5zM560 1299q0 32 22 54t54 22t54 -22t22 -54q0 -31 -22 -53.5t-54 -22.5t-54 22.5t-22 53.5z" />
<glyph unicode="&#x152;" horiz-adv-x="1962" d="M90 781q0 331 87 514q122 257 427 257h12q291 0 444 -286q40 128 82 174q85 95 250 95h440q25 0 39 -13q10 -10 10 -25t-10 -25q-14 -13 -39 -13h-444q-119 0 -178 -65q-72 -81 -72 -308v-270h694q25 0 39 -13q11 -11 11 -25q0 -15 -11 -25q-14 -13 -39 -13h-694v-268 q0 -53 2 -91q11 -149 70 -217q59 -65 178 -65h444q25 0 39 -13q10 -10 10 -25t-10 -25q-14 -13 -39 -13h-444q-161 0 -246 96q-42 45 -81 179q-152 -288 -445 -288h-12q-306 0 -427 257q-87 181 -87 514zM178 781q0 -481 186 -625q93 -71 240 -71h12q147 0 240 71 q186 144 186 625t-189 626q-92 69 -237 69h-12q-145 0 -237 -69q-189 -145 -189 -626z" />
<glyph unicode="&#x153;" horiz-adv-x="1720" d="M90 538q0 307 135 432q104 95 286 95t286 -95q41 -38 92 -136q50 98 91 136q104 96 288 96q201 0 311 -125q78 -89 78 -195q0 -31 -7 -63q-22 -112 -116 -182q-104 -77 -266 -77h-215q-24 0 -37 12q-10 10 -10 24t10 24q13 12 37 12l215 -1q112 0 191 46q90 53 110 154 q4 25 4 48q0 85 -60 154q-86 98 -245 98q-148 0 -227 -74q-98 -91 -110 -320q1 -31 1 -63t-1 -62q12 -230 111 -320q78 -73 223 -74h3q202 3 317 161q6 28 22 38q11 6 23 6q4 0 9 -1q16 -3 24 -15q6 -9 6 -22q0 -7 -2 -14q-99 -219 -399 -224h-3q-180 1 -283 96 q-41 38 -92 136q-50 -98 -91 -136q-104 -97 -288 -97t-288 97q-133 124 -133 431zM173 538q0 -279 111 -383q79 -74 227 -74t227 74q101 94 110 332q-1 25 -1 52q0 26 1 51q-9 237 -111 331q-80 73 -226 73t-226 -73q-112 -104 -112 -383z" />
<glyph unicode="&#x2c6;" horiz-adv-x="808" d="M110 1188q0 8 22 27l247 208q9 8 17 10q5 2 9 2q11 0 24 -11l247 -208q22 -19 22 -27q0 -1 -3 -3q-3 -4 -7 -4q-10 0 -27 14l-256 180l-258 -181q-17 -14 -27 -14q-4 0 -7 4q-3 2 -3 3z" />
<glyph unicode="&#x2dc;" horiz-adv-x="808" d="M110 1256q0 11 5 17q7 7 9 7q5 0 16 -14q31 -42 73 -52q11 -3 23 -3q57 0 164 56q106 54 156 60q9 1 18 1q67 0 114 -62q10 -14 10 -29q0 -11 -5 -17q-6 -6 -9 -6q-5 0 -16 14q-28 37 -65 47q-10 3 -23 3q-55 0 -171 -60q-103 -52 -157 -56q-7 -1 -13 -1q-69 0 -119 67 q-10 14 -10 28z" />
<glyph unicode="&#x2000;" horiz-adv-x="1006" />
<glyph unicode="&#x2001;" horiz-adv-x="2012" />
<glyph unicode="&#x2002;" horiz-adv-x="1006" />
<glyph unicode="&#x2003;" horiz-adv-x="2012" />
<glyph unicode="&#x2004;" horiz-adv-x="670" />
<glyph unicode="&#x2005;" horiz-adv-x="503" />
<glyph unicode="&#x2006;" horiz-adv-x="335" />
<glyph unicode="&#x2007;" horiz-adv-x="335" />
<glyph unicode="&#x2008;" horiz-adv-x="251" />
<glyph unicode="&#x2009;" horiz-adv-x="402" />
<glyph unicode="&#x200a;" horiz-adv-x="111" />
<glyph unicode="&#x2010;" horiz-adv-x="608" d="M0 546q0 9 7 16q9 9 27 9h540q18 0 27 -9q7 -7 7 -16q0 -10 -7 -17q-9 -8 -27 -8h-540q-18 0 -27 8q-7 7 -7 17z" />
<glyph unicode="&#x2011;" horiz-adv-x="608" d="M0 546q0 9 7 16q9 9 27 9h540q18 0 27 -9q7 -7 7 -16q0 -10 -7 -17q-9 -8 -27 -8h-540q-18 0 -27 8q-7 7 -7 17z" />
<glyph unicode="&#x2012;" horiz-adv-x="608" d="M0 546q0 9 7 16q9 9 27 9h540q18 0 27 -9q7 -7 7 -16q0 -10 -7 -17q-9 -8 -27 -8h-540q-18 0 -27 8q-7 7 -7 17z" />
<glyph unicode="&#x2013;" horiz-adv-x="1042" d="M0 546q0 9 7 16q9 9 27 9h974q18 0 27 -9q7 -7 7 -16q0 -10 -7 -17q-9 -8 -27 -8h-974q-18 0 -27 8q-7 7 -7 17z" />
<glyph unicode="&#x2014;" horiz-adv-x="1936" d="M0 546q0 9 7 16q9 9 27 9h1868q18 0 27 -9q7 -7 7 -16q0 -10 -7 -17q-9 -8 -27 -8h-1868q-18 0 -27 8q-7 7 -7 17z" />
<glyph unicode="&#x2018;" horiz-adv-x="376" d="M110 1127q0 116 139 320l9 -4q-47 -83 -76 -160q-8 -33 -8 -55q0 -56 41 -56q52 -13 52 -61q0 -26 -22 -45q-22 -20 -55 -20q-34 0 -58 20q-21 19 -21 45q-1 8 -1 16z" />
<glyph unicode="&#x2019;" horiz-adv-x="376" d="M110 1382q0 26 22 45q22 20 55 20q34 0 58 -20q21 -19 21 -45q1 -8 1 -16q0 -116 -139 -320l-9 4q47 83 76 160q8 33 8 55q0 56 -41 56q-52 13 -52 61z" />
<glyph unicode="&#x201a;" horiz-adv-x="376" d="M110 85q0 26 22 45q22 20 55 20q34 0 58 -20q21 -19 21 -45q1 -8 1 -16q0 -116 -139 -320l-9 4q47 83 76 160q8 33 8 55q0 56 -41 56q-52 13 -52 61z" />
<glyph unicode="&#x201c;" horiz-adv-x="596" d="M110 1127q0 116 139 320l9 -4q-47 -83 -76 -160q-8 -33 -8 -55q0 -56 41 -56q52 -13 52 -61q0 -26 -22 -45q-22 -20 -55 -20q-34 0 -58 20q-21 19 -21 45q-1 8 -1 16zM330 1127q0 116 139 320l9 -4q-47 -83 -76 -160q-8 -33 -8 -55q0 -56 41 -56q52 -13 52 -61 q0 -26 -22 -45q-22 -20 -55 -20q-34 0 -58 20q-21 19 -21 45q-1 8 -1 16z" />
<glyph unicode="&#x201d;" horiz-adv-x="596" d="M110 1382q0 26 22 45q22 20 55 20q34 0 58 -20q21 -19 21 -45q1 -8 1 -16q0 -116 -139 -320l-9 4q47 83 76 160q8 33 8 55q0 56 -41 56q-52 13 -52 61zM330 1382q0 26 22 45q22 20 55 20q34 0 58 -20q21 -19 21 -45q1 -8 1 -16q0 -116 -139 -320l-9 4q47 83 76 160 q8 33 8 55q0 56 -41 56q-52 13 -52 61z" />
<glyph unicode="&#x201e;" horiz-adv-x="596" d="M110 136q0 26 22 45q22 20 55 20q34 0 58 -20q21 -19 21 -45q1 -8 1 -16q0 -116 -139 -320l-9 4q47 83 76 160q8 33 8 55q0 56 -41 56q-52 13 -52 61zM330 136q0 26 22 45q22 20 55 20q34 0 58 -20q21 -19 21 -45q1 -8 1 -16q0 -116 -139 -320l-9 4q47 83 76 160 q8 33 8 55q0 56 -41 56q-52 13 -52 61z" />
<glyph unicode="&#x2022;" horiz-adv-x="834" d="M110 556q0 127 89.5 217t217.5 90q127 0 217 -90t90 -217q0 -128 -90 -217.5t-217 -89.5q-128 0 -217.5 89.5t-89.5 217.5z" />
<glyph unicode="&#x2026;" horiz-adv-x="1738" d="M110 70q0 32 22 54t54 22t54 -22t22 -54t-22 -54t-54 -22t-54 22t-22 54zM793 70q0 32 22 54t54 22t54 -22t22 -54t-22 -54t-54 -22t-54 22t-22 54zM1476 70q0 32 22 54t54 22t54 -22t22 -54t-22 -54t-54 -22t-54 22t-22 54z" />
<glyph unicode="&#x202f;" horiz-adv-x="402" />
<glyph unicode="&#x2039;" horiz-adv-x="783" d="M110 548q1 18 98 84l441 301q6 4 9 4h3q6 -3 9 -10q2 -5 2 -11q0 -5 -1 -9q-4 -13 -21 -25l-409 -278q-45 -32 -47 -55v-2q0 -23 45 -54l411 -284q17 -11 21 -26q2 -5 2 -10t-2 -10q-3 -7 -8 -9h-3q-5 0 -11 4l-456 314q-83 57 -83 76z" />
<glyph unicode="&#x203a;" horiz-adv-x="783" d="M110 173q0 5 2 10q4 15 21 26l411 284q45 31 45 54v2q-2 23 -47 55l-409 278q-17 12 -21 25q-1 4 -1 9q0 6 2 11q3 7 9 10h3q3 0 9 -4l441 -301q97 -66 98 -84q0 -19 -83 -76l-456 -314q-6 -4 -11 -4h-3q-5 2 -8 9q-2 5 -2 10z" />
<glyph unicode="&#x205f;" horiz-adv-x="503" />
<glyph unicode="&#x20ac;" horiz-adv-x="1179" d="M30 737q0 9 7 16q9 9 27 9h174q0 76 3 150h-177q-18 0 -27 8q-7 7 -7 17q0 9 7 16q9 9 27 9h180q19 211 67 333q103 255 357 255h15q393 -7 406 -410v-9q0 -21 -9 -34q-7 -11 -18 -12h-4q-10 0 -19 8q-14 13 -15 37q-16 343 -356 344q-126 0 -205 -70 q-121 -111 -152 -442h463q18 0 27 -9q7 -7 7 -16q0 -10 -7 -17q-9 -8 -27 -8h-467q-3 -72 -3 -150h470q18 0 27 -9q7 -7 7 -16q0 -10 -7 -17q-9 -8 -27 -8h-469q14 -427 156 -556q79 -73 207 -73h15q324 2 341 345q1 24 15 37q9 8 19 8h4q11 -1 18 -12q9 -13 9 -34v-9 q-13 -402 -406 -410h-15q-255 0 -358 255q-62 156 -72 449h-174q-18 0 -27 8q-7 7 -7 17z" />
<glyph unicode="&#x2122;" horiz-adv-x="1340" d="M28 988q0 5 5 9q7 6 19 6h390q13 0 19 -6q6 -4 6 -9q0 -6 -6 -10q-6 -6 -19 -6h-175v-557q0 -11 -6 -18q-6 -5 -13 -5q-8 0 -14 5q-6 7 -6 18v557h-176q-12 0 -19 6q-5 4 -5 10zM267 415v384q0 51 2 89q2 37 8 61q11 56 44 59q1 1 3 1q24 0 48 -31q18 -22 40 -66 q33 -64 88 -202q64 -158 75 -185q22 -50 45 -93q24 43 45 93q12 27 75 185q55 138 87 201q23 45 41 67q23 30 47 30h4q33 -3 44 -58q5 -25 7 -61q3 -38 3 -89v-385q0 -11 -7 -18q-6 -5 -13 -5t-13 5q-7 7 -7 18v385q0 82 -6 128q-5 33 -17 35q-10 0 -26 -26q-14 -24 -28 -53 q-29 -60 -79 -183q-66 -168 -81 -201q-20 -45 -34 -68q-21 -34 -42 -34t-42 34q-14 22 -33 68q-15 33 -82 201q-50 123 -79 184q-13 25 -26 47q-17 30 -26 32q-14 0 -20 -36q-6 -46 -6 -129v-384q0 -11 -7 -18q-5 -5 -13 -5q-7 0 -13 5q-6 7 -6 18z" />
<glyph unicode="&#xe000;" horiz-adv-x="1065" d="M0 0v1065h1065v-1065h-1065z" />
</font>
</defs>
</svg>
